<svg width="30" height="30" viewBox="0 0 30 30" fill="none" xmlns="http://www.w3.org/2000/svg">
<path d="M18.75 13.125C18.75 13.6223 18.5525 14.0992 18.2008 14.4508C17.8492 14.8025 17.3723 15 16.875 15C17.925 15 18.75 15.8375 18.75 16.875V18.75C18.75 20.1375 17.6375 21.25 16.25 21.25H11.25V18.75H16.25V16.25H13.75V13.75H16.25V11.25H11.25V8.75H16.25C17.6375 8.75 18.75 9.8625 18.75 11.25M23.75 3.75H6.25C4.8875 3.75 3.75 4.875 3.75 6.25V23.75C3.75 24.413 4.01339 25.0489 4.48223 25.5178C4.95107 25.9866 5.58696 26.25 6.25 26.25H23.75C24.413 26.25 25.0489 25.9866 25.5178 25.5178C25.9866 25.0489 26.25 24.413 26.25 23.75V6.25C26.25 5.58696 25.9866 4.95107 25.5178 4.48223C25.0489 4.01339 24.413 3.75 23.75 3.75Z" fill="black"/>
</svg>
