<svg width="30" height="30" viewBox="0 0 30 30" fill="none" xmlns="http://www.w3.org/2000/svg">
<path d="M18.75 18.75V16.875C18.75 16.3777 18.5525 15.9008 18.2008 15.5492C17.8492 15.1975 17.3723 15 16.875 15C17.3723 15 17.8492 14.8025 18.2008 14.4508C18.5525 14.0992 18.75 13.6223 18.75 13.125V11.25C18.75 10.587 18.4866 9.95107 18.0178 9.48223C17.5489 9.01339 16.913 8.75 16.25 8.75H11.25V11.25H16.25V13.75H13.75V16.25H16.25V18.75H11.25V21.25H16.25C16.913 21.25 17.5489 20.9866 18.0178 20.5178C18.4866 20.0489 18.75 19.413 18.75 18.75ZM23.75 23.75H6.25V6.25H23.75M23.75 3.75H6.25C5.58696 3.75 4.95107 4.01339 4.48223 4.48223C4.01339 4.95107 3.75 5.58696 3.75 6.25V23.75C3.75 24.413 4.01339 25.0489 4.48223 25.5178C4.95107 25.9866 5.58696 26.25 6.25 26.25H23.75C24.413 26.25 25.0489 25.9866 25.5178 25.5178C25.9866 25.0489 26.25 24.413 26.25 23.75V6.25C26.25 5.58696 25.9866 4.95107 25.5178 4.48223C25.0489 4.01339 24.413 3.75 23.75 3.75Z" fill="black"/>
</svg>
