<svg width="42" height="42" viewBox="0 0 42 42" fill="none" xmlns="http://www.w3.org/2000/svg">
<g clip-path="url(#clip0_58_93)">
<path fill-rule="evenodd" clip-rule="evenodd" d="M37.3341 28.4409C32.9698 33.4969 23.2279 39.6307 21.0068 40.5713C18.8817 41.4713 19.093 40.111 19.1835 39.5283C19.1876 39.5019 19.1914 39.4772 19.1948 39.4543C19.2338 39.2453 19.3312 38.6508 19.487 37.671C19.565 37.1223 19.6429 36.2992 19.4286 35.7701C19.1948 35.1822 18.2791 34.8882 17.5971 34.7315C7.60198 33.4185 0.217651 26.3832 0.217651 17.9958C0.217651 8.64811 9.53087 1.02495 21.0068 1.02495C32.4632 1.02495 41.7959 8.64811 41.7959 17.9958C41.7959 21.7388 40.3346 25.1094 37.3341 28.4409ZM34.5544 23.0717H28.7093C28.495 23.0717 28.3197 22.8953 28.3197 22.6798V22.6602V13.5477C28.3197 13.3321 28.495 13.1557 28.7093 13.1557H34.5544C34.7688 13.1557 34.9441 13.3321 34.9441 13.5477V15.037C34.9441 15.2526 34.7688 15.429 34.5544 15.429H30.5798V16.9771H34.5544C34.7688 16.9771 34.9441 17.1535 34.9441 17.369V18.8584C34.9441 19.074 34.7688 19.2503 34.5544 19.2503H30.5798V20.7985H34.5544C34.7688 20.7985 34.9441 20.9749 34.9441 21.1904V22.6798C34.9441 22.8953 34.7688 23.0717 34.5544 23.0717ZM7.10193 23.0717H7.12142H12.947C13.1614 23.0717 13.3367 22.8953 13.3367 22.6798V21.1904C13.3367 20.9748 13.1614 20.7985 12.947 20.7985H8.97237V13.5477C8.97237 13.3321 8.79702 13.1557 8.5827 13.1557H7.10193C6.88761 13.1557 6.71226 13.3321 6.71226 13.5477V22.6602V22.6798C6.71226 22.8953 6.88761 23.0717 7.10193 23.0717ZM16.4537 13.1557H14.9732C14.7581 13.1557 14.5837 13.3312 14.5837 13.5477V22.6798C14.5837 22.8962 14.7581 23.0717 14.9732 23.0717H16.4537C16.6689 23.0717 16.8433 22.8962 16.8433 22.6798V13.5477C16.8433 13.3312 16.6689 13.1557 16.4537 13.1557ZM26.8974 22.6798V13.5477C26.8974 13.3321 26.722 13.1557 26.4882 13.1557H25.027C24.8126 13.1557 24.6178 13.3321 24.6178 13.5477V18.9564L20.4678 13.3321C20.4678 13.319 20.4613 13.306 20.4483 13.2929L20.4093 13.2537L20.3898 13.2341H20.3704C20.3704 13.221 20.3639 13.2145 20.3509 13.2145V13.1949H20.3119L20.2924 13.1753H20.2729C20.26 13.1753 20.2535 13.1688 20.2535 13.1557H20.234H20.2145H20.195H20.1755H20.156H20.1366H18.6753C18.461 13.1557 18.2661 13.3321 18.2661 13.5477V22.6798C18.2661 22.8953 18.461 23.0717 18.6753 23.0717H20.1366C20.3704 23.0717 20.5457 22.8953 20.5457 22.6798V17.2515L24.6957 22.8953C24.7217 22.9345 24.7542 22.9672 24.7932 22.9933H24.8126C24.8126 23.0064 24.8191 23.0129 24.8321 23.0129L24.8516 23.0325H24.8711H24.8906V23.0521H24.9295C24.9555 23.0652 24.988 23.0717 25.027 23.0717H26.4882C26.722 23.0717 26.8974 22.8953 26.8974 22.6798Z" fill="white"/>
</g>
<defs>
<clipPath id="clip0_58_93">
<rect width="41.5782" height="41.5782" fill="white" transform="translate(0.217651 0.158722)"/>
</clipPath>
</defs>
</svg>
