<svg width="30" height="30" viewBox="0 0 30 30" fill="none" xmlns="http://www.w3.org/2000/svg">
<path d="M18.75 13.75C18.75 14.413 18.4866 15.0489 18.0178 15.5178C17.5489 15.9866 16.913 16.25 16.25 16.25H13.75V18.75H18.75V21.25H11.25V16.25C11.25 15.587 11.5134 14.9511 11.9822 14.4822C12.4511 14.0134 13.087 13.75 13.75 13.75H16.25V11.25H11.25V8.75H16.25C16.913 8.75 17.5489 9.01339 18.0178 9.48223C18.4866 9.95107 18.75 10.587 18.75 11.25M23.75 3.75H6.25C5.58696 3.75 4.95107 4.01339 4.48223 4.48223C4.01339 4.95107 3.75 5.58696 3.75 6.25V23.75C3.75 24.413 4.01339 25.0489 4.48223 25.5178C4.95107 25.9866 5.58696 26.25 6.25 26.25H23.75C24.413 26.25 25.0489 25.9866 25.5178 25.5178C25.9866 25.0489 26.25 24.413 26.25 23.75V6.25C26.25 5.58696 25.9866 4.95107 25.5178 4.48223C25.0489 4.01339 24.413 3.75 23.75 3.75Z" fill="black"/>
</svg>
