<?xml version="1.0" encoding="UTF-8" standalone="no"?>
<!DOCTYPE svg PUBLIC "-//W3C//DTD SVG 1.1//EN" "http://www.w3.org/Graphics/SVG/1.1/DTD/svg11.dtd">
<svg xmlns="http://www.w3.org/2000/svg" version="1.1" viewBox="0.00 0.00 421.00 415.00">
<path fill="#3e6990" d="
  M 411.36 205.08
  A 202.05 202.05 0.0 0 1 209.31 407.13
  A 202.05 202.05 0.0 0 1 7.26 205.08
  A 202.05 202.05 0.0 0 1 209.31 3.03
  A 202.05 202.05 0.0 0 1 411.36 205.08
  Z
  M 167.81 232.02
  C 178.37 234.55 186.74 240.00 195.89 245.63
  Q 196.39 245.94 196.67 245.42
  C 208.37 223.61 222.04 205.59 240.19 190.80
  A 0.40 0.40 0.0 0 1 240.81 191.26
  C 224.54 232.84 215.83 276.73 217.63 321.31
  C 218.55 344.26 224.33 370.31 241.73 386.95
  C 243.27 388.42 245.03 389.27 247.04 388.84
  Q 306.33 376.08 346.19 333.44
  C 414.64 260.21 413.93 144.64 342.11 73.29
  C 274.78 6.41 170.73 -0.13 95.36 57.05
  C 62.37 82.08 38.37 118.79 28.10 158.31
  C 0.82 263.24 67.44 368.23 173.84 389.27
  A 1.70 1.68 21.0 0 0 175.62 388.49
  Q 196.10 354.29 197.08 313.99
  C 197.80 284.52 189.82 253.66 167.51 232.58
  A 0.33 0.33 0.0 0 1 167.81 232.02
  Z"
/>
<path fill="#32c3bd" d="
  M 182.47 30.05
  C 189.85 35.20 196.87 42.95 201.57 48.67
  Q 221.55 73.03 218.58 104.72
  Q 218.34 107.28 215.54 113.00
  C 212.64 118.95 209.70 116.93 205.13 114.35
  C 182.55 101.59 170.68 77.52 172.03 52.02
  C 172.45 44.01 175.08 35.40 181.54 30.08
  A 0.77 0.76 42.9 0 1 182.47 30.05
  Z"
/>
<path fill="#7c9dba" d="
  M 232.14 141.05
  C 230.86 140.66 230.25 140.62 229.77 139.18
  Q 226.79 130.29 226.32 120.95
  C 226.09 116.49 226.95 111.75 227.59 107.02
  C 230.12 88.22 248.93 58.95 270.67 59.50
  C 272.64 59.55 273.01 60.58 273.14 62.32
  C 275.09 89.24 269.56 113.13 249.73 132.22
  Q 242.20 139.47 232.58 141.08
  A 0.94 0.88 47.0 0 1 232.14 141.05
  Z"
/>
<path fill="#91c9c7" d="
  M 108.81 85.39
  C 124.09 99.86 136.04 120.83 137.35 142.02
  C 138.05 153.31 138.12 171.87 126.96 179.21
  A 1.91 1.90 45.1 0 1 124.86 179.20
  C 99.75 162.39 87.50 132.23 95.28 102.71
  Q 98.13 91.91 106.44 85.29
  A 1.81 1.81 0.0 0 1 108.81 85.39
  Z"
/>
<path fill="#91c9c7" d="
  M 201.15 121.60
  C 214.02 133.70 227.05 152.54 226.27 170.99
  Q 226.13 174.08 224.08 176.90
  A 0.91 0.90 -69.4 0 1 223.28 177.27
  Q 222.42 177.21 221.71 177.21
  C 188.00 177.47 158.39 157.24 144.77 126.74
  C 140.33 116.82 138.04 104.37 142.14 94.37
  Q 142.33 93.90 142.81 93.72
  Q 144.30 93.18 145.74 93.53
  C 165.95 98.45 185.71 107.07 201.15 121.60
  Z"
/>
<path fill="#91c9c7" d="
  M 258.34 168.82
  C 261.33 139.33 281.14 114.07 309.35 104.63
  C 318.27 101.64 329.85 99.96 338.38 104.71
  A 2.51 2.51 0.0 0 1 339.52 107.77
  C 329.58 134.70 315.44 155.97 288.62 168.10
  C 279.80 172.09 271.52 173.74 262.32 172.17
  Q 260.01 171.77 258.59 169.76
  A 1.43 1.38 31.1 0 1 258.34 168.82
  Z"
/>
<path fill="#32c3bd" d="
  M 45.85 145.47
  C 64.45 154.25 82.70 168.66 92.32 186.94
  C 98.38 198.46 103.69 211.98 102.10 225.65
  C 101.73 228.85 100.11 237.11 95.26 235.69
  C 83.66 232.30 75.07 228.18 65.61 220.64
  C 47.65 206.33 35.53 183.34 37.59 159.52
  C 37.87 156.31 40.28 142.85 45.85 145.47
  Z"
/>
<path fill="#32c3bd" d="
  M 374.95 212.22
  A 1.03 1.02 -4.2 0 1 374.11 213.19
  C 351.21 217.42 328.69 213.80 310.54 198.48
  Q 303.13 192.22 300.94 183.53
  C 300.20 180.59 302.28 179.94 304.71 179.04
  C 321.46 172.90 341.45 175.17 356.34 185.14
  C 365.02 190.95 375.34 200.82 374.95 212.22
  Z"
/>
<path fill="#7c9dba" d="
  M 146.05 182.66
  C 162.51 181.51 192.92 186.99 200.20 204.98
  A 2.23 2.23 0.0 0 1 199.54 207.55
  C 177.13 225.77 145.02 225.36 121.87 208.85
  Q 114.25 203.41 110.73 194.83
  A 2.23 2.23 0.0 0 1 111.88 191.94
  C 122.56 187.16 134.65 183.46 146.05 182.66
  Z"
/>
<path fill="#91c9c7" d="
  M 237.64 238.41
  C 250.56 217.66 275.81 206.72 300.44 210.47
  C 308.10 211.63 317.58 215.07 322.33 221.58
  C 323.63 223.36 322.90 224.48 321.44 225.69
  Q 312.13 233.39 306.62 237.08
  Q 284.00 252.25 257.09 249.30
  C 250.41 248.57 240.81 245.97 237.59 239.40
  A 1.02 1.02 0.0 0 1 237.64 238.41
  Z"
/>
<path fill="#91c9c7" d="
  M 356.25 261.46
  C 344.43 260.58 329.15 254.86 322.97 244.02
  Q 321.27 241.04 324.16 239.41
  C 340.98 229.97 359.76 230.27 375.84 240.67
  C 380.39 243.62 387.50 249.88 386.42 256.01
  A 1.13 1.12 84.4 0 1 385.73 256.86
  Q 371.29 262.58 356.25 261.46
  Z"
/>
<path fill="#91c9c7" d="
  M 165.15 248.08
  C 168.47 250.59 170.02 252.96 167.46 256.57
  C 157.69 270.32 144.17 280.59 127.08 286.65
  C 107.22 293.70 81.04 293.33 62.82 281.43
  C 60.37 279.84 54.42 274.82 54.76 271.37
  A 1.27 1.26 -17.7 0 1 55.19 270.54
  C 71.21 256.42 88.81 245.42 109.72 240.66
  C 126.85 236.77 150.39 236.93 165.15 248.08
  Z"
/>
<path fill="#32c3bd" d="
  M 239.06 255.94
  Q 263.13 264.62 268.73 289.77
  Q 270.75 298.84 267.46 306.21
  C 266.21 309.00 264.01 307.16 262.32 306.31
  C 245.86 298.04 233.36 283.96 230.80 265.71
  Q 230.05 260.37 232.64 255.13
  A 0.86 0.85 14.8 0 1 233.45 254.66
  Q 235.89 254.79 239.06 255.94
  Z"
/>
<path fill="#7c9dba" d="
  M 296.06 287.11
  C 288.61 281.80 283.04 276.50 280.71 268.04
  C 280.19 266.14 280.80 264.88 282.64 264.10
  Q 292.65 259.80 304.75 259.81
  Q 330.67 259.83 348.41 278.37
  C 353.16 283.34 357.51 289.96 356.69 297.16
  A 0.93 0.92 -1.7 0 1 355.93 297.96
  C 334.69 301.56 313.89 299.81 296.06 287.11
  Z"
/>
</svg>
