<?xml version="1.0" encoding="UTF-8" standalone="no"?>
<!DOCTYPE svg PUBLIC "-//W3C//DTD SVG 1.1//EN" "http://www.w3.org/Graphics/SVG/1.1/DTD/svg11.dtd">
<svg xmlns="http://www.w3.org/2000/svg" version="1.1" viewBox="0.00 0.00 1340.00 428.00">
<g stroke-width="2.00" fill="none" stroke-linecap="butt">
<path stroke="#808080" vector-effect="non-scaling-stroke" d="
  M 247.94 29.77
  A 1.43 1.43 0.0 0 1 246.51 28.34
  L 246.50 7.54
  A 1.43 1.43 0.0 0 0 245.07 6.11
  L 221.99 6.14
  A 1.43 1.43 0.0 0 0 220.56 7.57
  L 220.59 28.34
  A 1.43 1.43 0.0 0 1 219.16 29.77
  L 96.94 29.78
  A 1.43 1.43 0.0 0 0 95.51 31.21
  L 95.51 54.29
  A 1.43 1.43 0.0 0 0 96.94 55.72
  L 370.63 55.72
  A 1.43 1.43 0.0 0 0 372.06 54.29
  L 372.08 31.20
  A 1.43 1.43 0.0 0 0 370.65 29.77
  L 247.94 29.77"
/>
<path stroke="#808080" vector-effect="non-scaling-stroke" d="
  M 1059.09 22.56
  A 1.35 1.35 0.0 0 1 1057.74 21.21
  L 1057.75 7.62
  A 1.35 1.35 0.0 0 0 1056.40 6.27
  L 1033.86 6.33
  A 1.35 1.35 0.0 0 0 1032.51 7.68
  L 1032.52 21.21
  A 1.35 1.35 0.0 0 1 1031.17 22.56
  L 973.38 22.55
  A 1.35 1.35 0.0 0 0 972.02 23.91
  L 972.10 43.12
  A 1.35 1.35 0.0 0 0 973.45 44.47
  L 1116.85 44.47
  A 1.35 1.35 0.0 0 0 1118.20 43.12
  L 1118.23 23.89
  A 1.35 1.35 0.0 0 0 1116.88 22.54
  L 1059.09 22.56"
/>
<path stroke="#808080" vector-effect="non-scaling-stroke" d="
  M 661.95 94.56
  L 661.95 106.56
  A 1.88 1.87 -24.6 0 1 661.49 107.79
  L 535.51 250.76
  A 2.97 2.96 65.7 0 0 534.77 252.72
  L 534.75 289.45
  A 0.87 0.87 0.0 0 0 536.27 290.02
  L 660.30 149.25
  A 0.92 0.92 0.0 0 1 661.91 149.85
  L 661.89 299.93
  A 1.54 1.53 0.0 0 0 663.43 301.46
  L 687.12 301.51
  A 1.62 1.61 -89.8 0 0 688.74 299.89
  L 688.74 147.50
  A 0.92 0.86 -88.2 0 1 689.66 146.58
  Q 689.95 146.60 690.39 147.10
  Q 752.49 217.38 815.21 288.44
  A 1.04 1.04 0.0 0 0 817.03 287.75
  L 817.04 252.01
  A 3.33 3.31 -65.9 0 0 816.21 249.81
  L 689.43 106.07
  A 2.72 2.69 24.5 0 1 688.75 104.28
  L 688.71 94.65
  Q 688.71 93.51 689.85 93.51
  L 812.99 93.50
  A 0.75 0.74 0.0 0 0 813.74 92.76
  L 813.72 68.76
  Q 813.72 67.81 812.76 67.81
  L 690.52 67.80
  A 1.78 1.78 0.0 0 1 688.74 66.02
  L 688.74 9.27
  Q 688.74 8.03 687.50 8.04
  L 663.42 8.09
  A 1.50 1.49 0.0 0 0 661.92 9.58
  L 661.89 66.15
  A 1.66 1.66 0.0 0 1 660.23 67.81
  L 539.24 67.81
  A 1.21 1.20 -0.0 0 0 538.03 69.01
  L 538.05 92.28
  Q 538.05 93.50 539.28 93.50
  L 660.90 93.51
  A 1.05 1.05 0.0 0 1 661.95 94.56"
/>
<path stroke="#808080" vector-effect="non-scaling-stroke" d="
  M 1236.22 187.36
  Q 1234.59 187.36 1234.59 185.72
  L 1234.57 50.06
  A 1.27 1.26 90.0 0 0 1233.31 48.79
  L 1187.93 48.78
  A 1.18 1.18 0.0 0 1 1186.77 47.41
  Q 1186.95 46.28 1187.60 44.76
  Q 1194.90 27.68 1202.03 10.57
  A 1.48 1.47 25.8 0 0 1201.38 8.71
  Q 1201.29 8.66 1200.50 8.64
  Q 1189.88 8.39 1179.25 8.47
  Q 1177.04 8.49 1175.78 8.76
  A 0.98 0.95 4.5 0 0 1175.09 9.33
  L 1159.18 47.00
  A 2.97 2.95 -78.4 0 1 1156.46 48.80
  L 1111.23 48.78
  A 1.24 1.24 0.0 0 0 1109.99 50.02
  L 1110.00 72.51
  A 0.76 0.76 0.0 0 0 1110.76 73.27
  L 1146.58 73.27
  A 1.11 1.11 0.0 0 1 1147.60 74.81
  L 1136.06 102.23
  A 1.38 1.37 44.0 0 1 1133.55 102.27
  C 1132.17 99.29 1130.49 97.27 1126.87 97.28
  Q 1114.18 97.34 1101.39 97.32
  A 0.71 0.71 0.0 0 0 1100.69 98.14
  Q 1100.79 98.82 1101.39 99.63
  Q 1112.43 114.45 1123.65 129.14
  A 1.72 1.71 37.8 0 1 1123.87 130.84
  L 1099.96 187.47
  A 0.68 0.57 26.9 0 0 1100.29 188.23
  Q 1100.50 188.36 1101.00 188.36
  Q 1113.62 188.50 1125.92 188.53
  A 1.69 1.67 -78.2 0 0 1127.46 187.51
  L 1141.22 154.96
  A 1.14 1.14 0.0 0 1 1142.81 154.40
  Q 1143.31 154.68 1143.86 155.39
  Q 1158.26 174.07 1172.68 192.92
  A 2.00 1.99 71.3 0 0 1174.27 193.71
  L 1201.80 193.70
  A 0.97 0.97 0.0 0 0 1202.57 192.14
  L 1153.75 128.51
  A 2.89 2.88 37.8 0 1 1153.38 125.62
  L 1174.86 75.23
  Q 1175.70 73.27 1177.82 73.27
  L 1207.28 73.26
  A 1.78 1.77 -0.0 0 1 1209.06 75.03
  L 1209.06 209.09
  A 1.87 1.87 0.0 0 0 1210.93 210.96
  L 1261.20 210.95
  A 1.90 1.89 90.0 0 0 1263.09 209.05
  L 1263.10 189.13
  A 1.71 1.71 0.0 0 0 1261.39 187.42
  L 1236.22 187.36"
/>
<path stroke="#808080" vector-effect="non-scaling-stroke" d="
  M 1098.90 53.35
  A 1.99 1.99 0.0 0 0 1096.91 51.36
  L 993.41 51.36
  A 1.99 1.99 0.0 0 0 991.42 53.35
  L 991.42 100.81
  A 1.99 1.99 0.0 0 0 993.41 102.80
  L 1096.91 102.80
  A 1.99 1.99 0.0 0 0 1098.90 100.81
  L 1098.90 53.35"
/>
<path stroke="#808080" vector-effect="non-scaling-stroke" d="
  M 313.64 70.89
  A 1.51 1.51 0.0 0 0 312.13 69.38
  L 154.67 69.38
  A 1.51 1.51 0.0 0 0 153.16 70.89
  L 153.16 143.23
  A 1.51 1.51 0.0 0 0 154.67 144.74
  L 312.13 144.74
  A 1.51 1.51 0.0 0 0 313.64 143.23
  L 313.64 70.89"
/>
<path stroke="#808080" vector-effect="non-scaling-stroke" d="
  M 1069.62 152.36
  L 1104.24 112.50
  Q 1105.43 111.14 1103.76 110.57
  Q 1103.37 110.44 1102.00 110.44
  Q 1045.21 110.49 988.05 110.49
  A 1.56 1.56 0.0 0 0 986.49 112.05
  L 986.49 128.93
  A 1.69 1.69 0.0 0 0 988.18 130.62
  L 1056.49 130.64
  Q 1058.59 130.64 1057.22 132.22
  L 1052.15 138.07
  Q 1050.80 139.63 1048.73 139.64
  L 1037.53 139.68
  A 1.04 1.04 0.0 0 0 1036.50 140.72
  L 1036.46 157.77
  A 1.18 1.18 0.0 0 1 1035.45 158.94
  L 974.02 167.56
  A 1.43 1.43 0.0 0 0 972.79 168.98
  L 972.80 189.76
  A 1.07 1.07 0.0 0 0 974.02 190.82
  L 1034.76 182.05
  A 1.51 1.51 0.0 0 1 1036.49 183.54
  L 1036.49 192.71
  A 0.96 0.95 90.0 0 1 1035.54 193.67
  L 1013.51 193.69
  A 0.79 0.79 0.0 0 0 1012.72 194.49
  L 1012.73 214.25
  Q 1012.73 215.26 1013.75 215.26
  L 1060.71 215.25
  A 1.72 1.71 -89.8 0 0 1062.42 213.54
  L 1062.46 178.70
  A 0.85 0.85 0.0 0 1 1063.20 177.86
  L 1097.97 173.04
  A 1.78 1.77 86.3 0 0 1099.50 171.29
  L 1099.51 151.45
  Q 1099.51 149.85 1097.93 150.07
  L 1070.50 153.97
  Q 1067.89 154.35 1069.62 152.36"
/>
<path stroke="#808080" vector-effect="non-scaling-stroke" d="
  M 129.44 184.99
  A 1.63 1.63 0.0 0 1 131.07 183.36
  L 335.78 183.35
  A 1.63 1.63 0.0 0 1 337.41 184.98
  L 337.43 299.98
  A 1.63 1.63 0.0 0 0 339.06 301.61
  L 362.28 301.57
  A 1.63 1.63 0.0 0 0 363.91 299.94
  L 363.91 160.52
  A 1.63 1.63 0.0 0 0 362.28 158.89
  L 104.56 158.90
  A 1.63 1.63 0.0 0 0 102.93 160.53
  L 102.93 299.99
  A 1.63 1.63 0.0 0 0 104.56 301.62
  L 127.80 301.58
  A 1.63 1.63 0.0 0 0 129.43 299.95
  L 129.44 184.99"
/>
<path stroke="#808080" vector-effect="non-scaling-stroke" d="
  M 1104.55 251.03
  L 1104.54 272.60
  Q 1104.54 273.25 1103.89 273.25
  L 976.14 273.25
  A 1.49 1.48 -0.0 0 0 974.65 274.73
  L 974.62 297.44
  A 0.64 0.64 0.0 0 0 975.26 298.08
  L 1260.49 298.08
  A 0.82 0.82 0.0 0 0 1261.31 297.26
  L 1261.27 274.79
  Q 1261.26 273.25 1259.72 273.25
  L 1132.26 273.25
  A 1.49 1.48 -90.0 0 1 1130.78 271.76
  L 1130.78 250.78
  A 0.75 0.74 -3.5 0 1 1131.44 250.04
  Q 1133.97 249.71 1136.75 249.71
  Q 1181.24 249.75 1225.85 249.77
  Q 1227.09 249.77 1227.09 248.52
  L 1227.04 226.77
  A 1.52 1.52 0.0 0 0 1225.52 225.26
  L 1132.77 225.26
  A 1.99 1.99 0.0 0 1 1130.78 223.27
  L 1130.77 195.23
  Q 1130.77 193.68 1129.23 193.68
  L 1105.29 193.70
  A 0.76 0.76 0.0 0 0 1104.53 194.46
  L 1104.56 223.72
  A 1.54 1.53 -90.0 0 1 1103.03 225.26
  L 1009.91 225.26
  Q 1008.08 225.26 1008.08 227.09
  L 1008.08 248.17
  Q 1008.08 249.75 1009.67 249.75
  L 1103.28 249.76
  A 1.27 1.27 0.0 0 1 1104.55 251.03"
/>
<path stroke="#808080" vector-effect="non-scaling-stroke" d="
  M 301.20 201.72
  A 1.62 1.62 0.0 0 0 299.58 200.10
  L 167.24 200.10
  A 1.62 1.62 0.0 0 0 165.62 201.72
  L 165.62 273.94
  A 1.62 1.62 0.0 0 0 167.24 275.56
  L 299.58 275.56
  A 1.62 1.62 0.0 0 0 301.20 273.94
  L 301.20 201.72"
/>
<path stroke="#808080" vector-effect="non-scaling-stroke" d="
  M 555.37 332.42
  A 0.50 0.50 0.0 0 0 554.97 332.22
  L 547.80 332.23
  A 0.50 0.50 0.0 0 0 547.41 333.04
  L 551.00 337.55
  A 0.50 0.50 0.0 0 0 551.39 337.74
  L 558.38 337.77
  A 0.50 0.50 0.0 0 0 558.78 336.97
  L 555.37 332.42"
/>
<path stroke="#808080" vector-effect="non-scaling-stroke" d="
  M 575.36 338.44
  A 0.39 0.39 0.0 0 1 575.04 337.82
  L 578.82 332.87
  A 0.39 0.39 0.0 0 0 578.51 332.24
  L 570.93 332.23
  A 0.39 0.39 0.0 0 0 570.61 332.39
  L 566.25 338.32
  A 0.39 0.39 0.0 0 1 565.93 338.48
  L 536.13 338.38
  A 0.39 0.39 0.0 0 0 535.74 338.77
  L 535.75 344.30
  A 0.39 0.39 0.0 0 0 536.14 344.69
  L 556.03 344.72
  A 0.39 0.39 0.0 0 1 556.35 345.32
  L 554.16 348.67
  A 0.39 0.39 0.0 0 1 553.83 348.85
  L 542.88 348.79
  A 0.39 0.39 0.0 0 0 542.49 349.18
  L 542.49 378.12
  A 0.39 0.39 0.0 0 0 542.88 378.51
  L 583.87 378.50
  A 0.39 0.39 0.0 0 0 584.26 378.11
  L 584.26 349.23
  A 0.39 0.39 0.0 0 0 583.87 348.84
  L 562.50 348.82
  A 0.39 0.39 0.0 0 1 562.18 348.21
  L 564.55 344.85
  A 0.39 0.39 0.0 0 1 564.87 344.68
  L 590.03 344.72
  A 0.39 0.39 0.0 0 0 590.42 344.33
  L 590.44 338.73
  A 0.39 0.39 0.0 0 0 590.05 338.34
  L 575.36 338.44"
/>
<path stroke="#808080" vector-effect="non-scaling-stroke" d="
  M 795.19 341.50
  A 0.33 0.33 0.0 0 1 794.92 340.98
  L 800.77 332.72
  A 0.33 0.33 0.0 0 0 800.50 332.20
  L 791.67 332.23
  A 0.33 0.33 0.0 0 0 791.40 332.37
  L 785.29 341.36
  A 0.33 0.33 0.0 0 1 785.02 341.50
  L 769.44 341.51
  A 0.33 0.33 0.0 0 0 769.11 341.84
  L 769.14 412.43
  A 0.33 0.33 0.0 0 0 769.47 412.76
  L 827.80 412.76
  A 0.33 0.33 0.0 0 0 828.13 412.43
  L 828.13 341.83
  A 0.33 0.33 0.0 0 0 827.80 341.50
  L 795.19 341.50"
/>
<path stroke="#808080" vector-effect="non-scaling-stroke" d="
  M 917.53 346.41
  A 0.61 0.61 0.0 0 1 916.92 347.02
  L 887.15 347.02
  A 0.61 0.61 0.0 0 0 886.54 347.63
  L 886.56 353.58
  A 0.61 0.61 0.0 0 0 887.17 354.19
  L 955.86 354.16
  A 0.61 0.61 0.0 0 0 956.47 353.55
  L 956.45 347.63
  A 0.61 0.61 0.0 0 0 955.84 347.02
  L 925.51 347.03
  A 0.61 0.61 0.0 0 1 924.90 346.42
  L 925.00 332.91
  A 0.61 0.61 0.0 0 0 924.39 332.30
  L 918.14 332.28
  A 0.61 0.61 0.0 0 0 917.53 332.89
  L 917.53 346.41"
/>
<path stroke="#808080" vector-effect="non-scaling-stroke" d="
  M 1064.62 343.76
  A 0.37 0.37 0.0 0 1 1064.32 343.18
  L 1071.65 332.82
  A 0.37 0.37 0.0 0 0 1071.34 332.23
  L 1063.37 332.27
  A 0.37 0.37 0.0 0 0 1063.07 332.43
  L 1055.19 343.62
  A 0.37 0.37 0.0 0 1 1054.89 343.78
  L 1007.90 343.77
  A 0.37 0.37 0.0 0 0 1007.53 344.14
  L 1007.60 364.05
  A 0.37 0.37 0.0 0 0 1007.97 364.42
  L 1014.42 364.41
  A 0.37 0.37 0.0 0 0 1014.79 364.04
  L 1014.76 351.17
  A 0.37 0.37 0.0 0 1 1015.13 350.80
  L 1074.91 350.82
  A 0.37 0.37 0.0 0 1 1075.28 351.19
  L 1075.22 364.02
  A 0.37 0.37 0.0 0 0 1075.59 364.40
  L 1082.12 364.48
  A 0.37 0.37 0.0 0 0 1082.50 364.11
  L 1082.50 344.16
  A 0.37 0.37 0.0 0 0 1082.13 343.79
  L 1064.62 343.76"
/>
<path stroke="#808080" vector-effect="non-scaling-stroke" d="
  M 151.46 373.30
  A 0.17 0.17 0.0 0 1 151.79 373.36
  L 151.80 413.48
  Q 151.80 413.90 152.23 413.90
  L 158.46 413.87
  Q 158.84 413.86 158.84 413.48
  L 158.78 353.49
  A 8.51 8.37 55.2 0 1 159.26 350.68
  L 165.41 333.17
  A 0.30 0.30 0.0 0 0 165.13 332.77
  L 158.29 332.73
  Q 157.96 332.73 157.85 333.04
  L 142.46 376.98
  Q 142.08 378.07 143.23 378.07
  L 148.39 378.09
  Q 149.63 378.10 150.07 376.94
  L 151.46 373.30"
/>
<path stroke="#808080" vector-effect="non-scaling-stroke" d="
  M 342.75 333.31
  A 0.58 0.58 0.0 0 0 342.17 332.73
  L 335.79 332.73
  A 0.58 0.58 0.0 0 0 335.21 333.31
  L 335.21 413.33
  A 0.58 0.58 0.0 0 0 335.79 413.91
  L 342.17 413.91
  A 0.58 0.58 0.0 0 0 342.75 413.33
  L 342.75 333.31"
/>
<path stroke="#808080" vector-effect="non-scaling-stroke" d="
  M 398.25 387.11
  A 0.53 0.53 0.0 0 1 399.01 387.59
  L 398.99 413.36
  A 0.53 0.53 0.0 0 0 399.52 413.89
  L 405.55 413.89
  A 0.53 0.53 0.0 0 0 406.08 413.36
  L 406.07 383.52
  A 0.53 0.53 0.0 0 1 406.37 383.05
  L 415.46 378.67
  A 0.53 0.53 0.0 0 0 415.76 378.20
  L 415.86 371.51
  A 0.53 0.53 0.0 0 0 415.10 371.02
  L 406.85 374.94
  A 0.53 0.53 0.0 0 1 406.09 374.46
  L 406.09 355.76
  A 0.53 0.53 0.0 0 1 406.62 355.23
  L 416.36 355.23
  A 0.53 0.53 0.0 0 0 416.89 354.70
  L 416.90 348.72
  A 0.53 0.53 0.0 0 0 416.37 348.19
  L 406.59 348.21
  A 0.53 0.53 0.0 0 1 406.06 347.68
  L 406.12 333.27
  A 0.53 0.53 0.0 0 0 405.59 332.74
  L 399.48 332.75
  A 0.53 0.53 0.0 0 0 398.95 333.28
  L 399.04 347.62
  A 0.53 0.53 0.0 0 1 398.51 348.16
  L 389.07 348.25
  A 0.53 0.53 0.0 0 0 388.55 348.77
  L 388.54 354.69
  A 0.53 0.53 0.0 0 0 389.07 355.22
  L 398.47 355.23
  A 0.53 0.53 0.0 0 1 399.00 355.76
  L 399.00 378.43
  A 0.53 0.53 0.0 0 1 398.70 378.91
  L 388.83 383.76
  A 0.53 0.53 0.0 0 0 388.53 384.24
  L 388.53 390.94
  A 0.53 0.53 0.0 0 0 389.29 391.42
  L 398.25 387.11"
/>
<path stroke="#808080" vector-effect="non-scaling-stroke" d="
  M 429.11 361.48
  A 0.49 0.49 0.0 0 1 428.62 360.99
  L 428.61 355.38
  A 0.49 0.49 0.0 0 1 428.96 354.91
  L 465.26 344.10
  A 0.49 0.49 0.0 0 0 465.61 343.64
  L 465.63 337.36
  A 0.49 0.49 0.0 0 0 465.00 336.89
  L 429.21 347.52
  A 0.49 0.49 0.0 0 1 428.58 347.05
  L 428.64 333.22
  A 0.49 0.49 0.0 0 0 428.15 332.73
  L 421.99 332.74
  A 0.49 0.49 0.0 0 0 421.50 333.23
  L 421.50 367.96
  A 0.49 0.49 0.0 0 0 421.99 368.45
  L 467.88 368.45
  A 0.49 0.49 0.0 0 0 468.37 367.96
  L 468.42 361.97
  A 0.49 0.49 0.0 0 0 467.93 361.48
  L 429.11 361.48"
/>
<path stroke="#808080" vector-effect="non-scaling-stroke" d="
  M 1023.68 342.03
  A 0.37 0.37 0.0 0 0 1023.98 342.19
  L 1031.89 342.25
  A 0.37 0.37 0.0 0 0 1032.20 341.67
  L 1026.17 333.03
  A 0.37 0.37 0.0 0 0 1025.87 332.87
  L 1018.09 332.84
  A 0.37 0.37 0.0 0 0 1017.79 333.42
  L 1023.68 342.03"
/>
<path stroke="#808080" vector-effect="non-scaling-stroke" d="
  M 1040.75 342.04
  A 0.40 0.40 0.0 0 0 1041.08 342.21
  L 1048.77 342.28
  A 0.40 0.40 0.0 0 0 1049.10 341.65
  L 1043.13 333.05
  A 0.40 0.40 0.0 0 0 1042.80 332.88
  L 1035.17 332.85
  A 0.40 0.40 0.0 0 0 1034.84 333.48
  L 1040.75 342.04"
/>
<path stroke="#808080" vector-effect="non-scaling-stroke" d="
  M 1130.69 339.52
  A 0.63 0.63 0.0 0 0 1131.32 340.15
  L 1156.86 340.09
  A 0.63 0.63 0.0 0 1 1157.49 340.72
  L 1157.47 370.36
  A 0.63 0.63 0.0 0 0 1158.10 370.99
  L 1164.06 370.97
  A 0.63 0.63 0.0 0 0 1164.69 370.34
  L 1164.71 333.84
  A 0.63 0.63 0.0 0 0 1164.08 333.21
  L 1131.31 333.21
  A 0.63 0.63 0.0 0 0 1130.68 333.84
  L 1130.69 339.52"
/>
<path stroke="#808080" vector-effect="non-scaling-stroke" d="
  M 1198.24 340.08
  A 0.53 0.53 0.0 0 1 1198.77 340.61
  L 1198.75 370.45
  A 0.53 0.53 0.0 0 0 1199.28 370.98
  L 1205.32 370.96
  A 0.53 0.53 0.0 0 0 1205.85 370.43
  L 1205.89 333.74
  A 0.53 0.53 0.0 0 0 1205.36 333.21
  L 1171.42 333.20
  A 0.53 0.53 0.0 0 0 1170.89 333.73
  L 1170.89 339.57
  A 0.53 0.53 0.0 0 0 1171.42 340.10
  L 1198.24 340.08"
/>
<path stroke="#808080" vector-effect="non-scaling-stroke" d="
  M 219.73 334.84
  A 0.60 0.60 0.0 0 0 219.13 334.24
  L 167.09 334.24
  A 0.60 0.60 0.0 0 0 166.49 334.84
  L 166.49 411.98
  A 0.60 0.60 0.0 0 0 167.09 412.58
  L 219.13 412.58
  A 0.60 0.60 0.0 0 0 219.73 411.98
  L 219.73 334.84"
/>
<path stroke="#808080" vector-effect="non-scaling-stroke" d="
  M 283.24 366.23
  A 0.50 0.50 0.0 0 1 283.70 366.92
  L 265.03 413.19
  A 0.50 0.50 0.0 0 0 265.49 413.88
  L 271.98 413.98
  A 0.50 0.50 0.0 0 0 272.45 413.66
  L 286.19 379.44
  A 0.50 0.50 0.0 0 1 286.66 379.13
  L 296.47 379.17
  A 0.50 0.50 0.0 0 1 296.97 379.67
  L 296.98 405.76
  A 0.50 0.50 0.0 0 1 296.48 406.26
  L 288.74 406.32
  A 0.50 0.50 0.0 0 0 288.24 406.82
  L 288.26 412.47
  A 0.50 0.50 0.0 0 0 288.76 412.97
  L 303.69 412.95
  A 0.50 0.50 0.0 0 0 304.19 412.45
  L 304.25 372.85
  A 0.50 0.50 0.0 0 0 303.75 372.35
  L 289.73 372.46
  A 0.50 0.50 0.0 0 1 289.27 371.78
  L 291.35 366.54
  A 0.50 0.50 0.0 0 1 291.82 366.22
  L 304.57 366.24
  A 0.50 0.50 0.0 0 0 305.07 365.74
  L 305.07 335.21
  A 0.50 0.50 0.0 0 0 304.57 334.71
  L 269.91 334.72
  A 0.50 0.50 0.0 0 0 269.41 335.22
  L 269.41 365.74
  A 0.50 0.50 0.0 0 0 269.91 366.24
  L 283.24 366.23"
/>
<path stroke="#808080" vector-effect="non-scaling-stroke" d="
  M 530.52 346.26
  A 0.48 0.48 0.0 0 0 531.12 345.78
  L 530.98 339.80
  A 0.48 0.48 0.0 0 0 530.62 339.35
  L 515.10 335.42
  A 0.48 0.48 0.0 0 0 514.50 335.89
  L 514.49 341.83
  A 0.48 0.48 0.0 0 0 514.85 342.29
  L 530.52 346.26"
/>
<path stroke="#808080" vector-effect="non-scaling-stroke" d="
  M 320.73 340.54
  A 0.54 0.54 0.0 0 0 320.19 340.00
  L 313.83 340.00
  A 0.54 0.54 0.0 0 0 313.29 340.54
  L 313.29 395.00
  A 0.54 0.54 0.0 0 0 313.83 395.54
  L 320.19 395.54
  A 0.54 0.54 0.0 0 0 320.73 395.00
  L 320.73 340.54"
/>
<path stroke="#808080" vector-effect="non-scaling-stroke" d="
  M 1185.88 352.27
  A 0.76 0.76 0.0 0 0 1186.80 351.53
  L 1186.85 346.44
  A 0.76 0.76 0.0 0 0 1186.25 345.69
  L 1168.95 342.08
  A 0.76 0.76 0.0 0 0 1168.04 342.82
  L 1168.01 347.82
  A 0.76 0.76 0.0 0 0 1168.61 348.57
  L 1185.88 352.27"
/>
<path stroke="#808080" vector-effect="non-scaling-stroke" d="
  M 1148.63 353.22
  A 0.46 0.46 0.0 0 0 1149.18 352.77
  L 1149.21 347.12
  A 0.46 0.46 0.0 0 0 1148.84 346.66
  L 1130.89 342.99
  A 0.46 0.46 0.0 0 0 1130.33 343.44
  L 1130.26 349.03
  A 0.46 0.46 0.0 0 0 1130.63 349.49
  L 1148.63 353.22"
/>
<path stroke="#808080" vector-effect="non-scaling-stroke" d="
  M 1197.20 356.58
  A 0.69 0.69 0.0 0 0 1197.61 355.95
  L 1197.59 349.98
  A 0.69 0.69 0.0 0 0 1196.62 349.36
  L 1168.59 361.95
  A 0.69 0.69 0.0 0 0 1168.18 362.58
  L 1168.21 368.58
  A 0.69 0.69 0.0 0 0 1169.19 369.20
  L 1197.20 356.58"
/>
<path stroke="#808080" vector-effect="non-scaling-stroke" d="
  M 670.30 372.45
  A 0.60 0.60 0.0 0 1 670.30 373.29
  L 652.54 391.09
  A 0.60 0.60 0.0 0 0 652.54 391.94
  L 656.09 395.45
  A 0.60 0.60 0.0 0 0 656.94 395.44
  L 674.54 377.60
  A 0.60 0.60 0.0 0 1 675.40 377.60
  L 693.14 395.41
  A 0.60 0.60 0.0 0 0 693.99 395.41
  L 697.51 391.92
  A 0.60 0.60 0.0 0 0 697.51 391.07
  L 679.76 373.29
  A 0.60 0.60 0.0 0 1 679.76 372.45
  L 697.49 354.68
  A 0.60 0.60 0.0 0 0 697.49 353.84
  L 694.01 350.34
  A 0.60 0.60 0.0 0 0 693.16 350.34
  L 675.41 368.15
  A 0.60 0.60 0.0 0 1 674.56 368.15
  L 656.94 350.29
  A 0.60 0.60 0.0 0 0 656.08 350.29
  L 652.55 353.84
  A 0.60 0.60 0.0 0 0 652.55 354.68
  L 670.30 372.45"
/>
<path stroke="#808080" vector-effect="non-scaling-stroke" d="
  M 524.13 360.68
  L 524.13 374.27
  A 1.34 1.33 -14.2 0 1 523.42 375.45
  L 512.07 381.58
  A 0.54 0.54 0.0 0 0 511.78 382.06
  L 511.76 389.21
  A 0.25 0.25 0.0 0 0 512.12 389.43
  L 527.78 381.03
  A 1.58 1.57 -42.2 0 1 529.37 381.10
  C 532.79 383.28 537.87 387.02 542.04 387.02
  Q 566.86 387.02 591.53 387.00
  A 0.26 0.26 0.0 0 0 591.79 386.75
  L 591.79 380.72
  A 0.32 0.32 0.0 0 0 591.47 380.40
  Q 568.05 380.45 544.53 380.49
  C 539.85 380.50 535.24 377.21 531.50 374.64
  Q 531.14 374.39 531.14 373.96
  L 531.17 353.92
  Q 531.17 353.42 530.67 353.42
  L 513.79 353.42
  Q 513.24 353.42 513.24 353.97
  L 513.25 359.48
  A 0.48 0.48 0.0 0 0 513.73 359.96
  L 523.43 359.98
  Q 524.13 359.98 524.13 360.68"
/>
<path stroke="#808080" vector-effect="non-scaling-stroke" d="
  M 1155.23 361.72
  A 0.59 0.59 0.0 0 0 1155.58 361.18
  L 1155.54 355.00
  A 0.59 0.59 0.0 0 0 1154.71 354.46
  L 1130.07 365.61
  A 0.59 0.59 0.0 0 0 1129.72 366.15
  L 1129.74 372.35
  A 0.59 0.59 0.0 0 0 1130.57 372.88
  L 1155.23 361.72"
/>
<path stroke="#808080" vector-effect="non-scaling-stroke" d="
  M 932.28 405.20
  A 0.54 0.54 0.0 0 1 931.77 404.50
  L 946.51 356.76
  A 0.54 0.54 0.0 0 0 945.99 356.06
  L 939.35 356.10
  A 0.54 0.54 0.0 0 0 938.83 356.48
  L 923.91 404.83
  A 0.54 0.54 0.0 0 1 923.39 405.21
  L 882.56 405.22
  A 0.54 0.54 0.0 0 0 882.02 405.76
  L 882.01 411.74
  A 0.54 0.54 0.0 0 0 882.55 412.28
  L 960.58 412.28
  A 0.54 0.54 0.0 0 0 961.12 411.74
  L 961.11 405.77
  A 0.54 0.54 0.0 0 0 960.57 405.23
  L 932.28 405.20"
/>
<path stroke="#808080" vector-effect="non-scaling-stroke" d="
  M 1084.56 379.50
  A 0.33 0.33 0.0 0 0 1084.23 379.17
  L 1050.49 379.20
  A 0.33 0.33 0.0 0 1 1050.26 378.63
  L 1072.68 356.60
  A 0.33 0.33 0.0 0 0 1072.45 356.03
  L 1018.50 356.02
  A 0.33 0.33 0.0 0 0 1018.17 356.34
  L 1018.06 362.80
  A 0.33 0.33 0.0 0 0 1018.39 363.14
  L 1054.80 363.08
  A 0.33 0.33 0.0 0 1 1055.04 363.65
  L 1045.67 372.90
  A 0.33 0.33 0.0 0 1 1045.44 372.99
  L 1041.35 373.01
  A 0.33 0.33 0.0 0 0 1041.03 373.35
  L 1041.29 378.82
  A 0.33 0.33 0.0 0 1 1040.96 379.17
  L 1005.87 379.19
  A 0.33 0.33 0.0 0 0 1005.54 379.52
  L 1005.51 385.86
  A 0.33 0.33 0.0 0 0 1005.84 386.19
  L 1040.85 386.21
  A 0.33 0.33 0.0 0 1 1041.18 386.54
  L 1041.18 406.43
  A 0.33 0.33 0.0 0 1 1040.85 406.76
  L 1027.59 406.79
  A 0.33 0.33 0.0 0 0 1027.26 407.12
  L 1027.24 413.17
  A 0.33 0.33 0.0 0 0 1027.57 413.50
  L 1048.17 413.52
  A 0.33 0.33 0.0 0 0 1048.50 413.19
  L 1048.51 386.51
  A 0.33 0.33 0.0 0 1 1048.84 386.18
  L 1084.24 386.21
  A 0.33 0.33 0.0 0 0 1084.57 385.88
  L 1084.56 379.50"
/>
<path stroke="#808080" vector-effect="non-scaling-stroke" d="
  M 904.01 358.46
  A 0.62 0.62 0.0 0 0 903.41 358.00
  L 897.12 358.00
  A 0.62 0.62 0.0 0 0 896.52 358.78
  L 907.79 400.94
  A 0.62 0.62 0.0 0 0 908.39 401.40
  L 914.77 401.40
  A 0.62 0.62 0.0 0 0 915.37 400.62
  L 904.01 358.46"
/>
<path stroke="#808080" vector-effect="non-scaling-stroke" d="
  M 53.48 375.26
  Q 63.43 379.75 66.01 380.74
  Q 82.00 386.85 96.74 376.85
  A 0.47 0.46 -17.8 0 0 96.94 376.47
  L 96.94 368.51
  A 0.25 0.25 0.0 0 0 96.56 368.30
  C 86.79 374.50 78.33 377.26 67.02 372.60
  C 59.90 369.66 51.50 365.44 44.66 364.46
  Q 32.26 362.67 20.89 369.60
  Q 20.68 369.73 20.68 369.99
  L 20.73 378.48
  A 0.22 0.22 0.0 0 0 21.08 378.66
  Q 36.20 367.48 53.48 375.26"
/>
<path stroke="#808080" vector-effect="non-scaling-stroke" d="
  M 1287.99 375.99
  C 1302.91 383.32 1315.30 386.55 1329.21 377.02
  Q 1329.70 376.68 1329.70 376.09
  L 1329.67 368.99
  A 0.63 0.63 0.0 0 0 1328.66 368.49
  Q 1317.51 377.10 1304.38 374.11
  C 1295.19 372.03 1286.74 365.95 1277.89 364.54
  Q 1265.38 362.54 1253.71 369.53
  Q 1253.48 369.67 1253.48 369.94
  L 1253.50 378.48
  A 0.22 0.22 0.0 0 0 1253.85 378.66
  Q 1269.67 366.99 1287.99 375.99"
/>
<path stroke="#808080" vector-effect="non-scaling-stroke" d="
  M 1163.11 375.67
  A 0.51 0.51 0.0 0 1 1162.66 375.95
  L 1140.04 375.92
  A 0.51 0.51 0.0 0 0 1139.53 376.43
  L 1139.52 412.47
  A 0.51 0.51 0.0 0 0 1140.03 412.98
  L 1196.67 412.95
  A 0.51 0.51 0.0 0 0 1197.18 412.44
  L 1197.16 376.45
  A 0.51 0.51 0.0 0 0 1196.65 375.94
  L 1171.93 375.92
  A 0.51 0.51 0.0 0 1 1171.48 375.16
  L 1173.75 371.17
  A 0.51 0.51 0.0 0 0 1173.30 370.41
  L 1166.09 370.43
  A 0.51 0.51 0.0 0 0 1165.64 370.71
  L 1163.11 375.67"
/>
<path stroke="#808080" vector-effect="non-scaling-stroke" d="
  M 465.19 372.93
  A 0.66 0.66 0.0 0 0 464.53 372.27
  L 424.53 372.27
  A 0.66 0.66 0.0 0 0 423.87 372.93
  L 423.87 412.29
  A 0.66 0.66 0.0 0 0 424.53 412.95
  L 464.53 412.95
  A 0.66 0.66 0.0 0 0 465.19 412.29
  L 465.19 372.93"
/>
<path stroke="#808080" vector-effect="non-scaling-stroke" d="
  M 565.53 388.06
  A 0.57 0.57 0.0 0 0 564.95 388.66
  L 565.03 390.57
  A 0.57 0.57 0.0 0 1 564.46 391.17
  L 512.35 391.13
  A 0.57 0.57 0.0 0 0 511.78 391.69
  L 511.72 397.25
  A 0.57 0.57 0.0 0 0 512.29 397.83
  L 564.48 397.85
  A 0.57 0.57 0.0 0 1 565.05 398.42
  L 565.00 413.30
  A 0.57 0.57 0.0 0 0 565.57 413.87
  L 571.69 413.87
  A 0.57 0.57 0.0 0 0 572.26 413.30
  L 572.24 398.43
  A 0.57 0.57 0.0 0 1 572.81 397.86
  L 591.29 397.83
  A 0.57 0.57 0.0 0 0 591.86 397.25
  L 591.74 391.72
  A 0.57 0.57 0.0 0 0 591.17 391.16
  L 572.83 391.09
  A 0.57 0.57 0.0 0 1 572.26 390.50
  L 572.33 388.75
  A 0.57 0.57 0.0 0 0 571.77 388.16
  L 565.53 388.06"
/>
<path stroke="#808080" vector-effect="non-scaling-stroke" d="
  M 538.73 411.55
  A 0.34 0.34 0.0 0 0 538.98 411.66
  L 547.43 411.67
  A 0.34 0.34 0.0 0 0 547.68 411.10
  L 538.58 400.88
  A 0.34 0.34 0.0 0 0 538.33 400.77
  L 529.96 400.79
  A 0.34 0.34 0.0 0 0 529.71 401.35
  L 538.73 411.55"
/>
<path stroke="#808080" vector-effect="non-scaling-stroke" d="
  M 1075.42 73.04
  A 1.55 1.55 0.0 0 0 1073.87 71.49
  L 1017.15 71.49
  A 1.55 1.55 0.0 0 0 1015.60 73.04
  L 1015.60 80.72
  A 1.55 1.55 0.0 0 0 1017.15 82.27
  L 1073.87 82.27
  A 1.55 1.55 0.0 0 0 1075.42 80.72
  L 1075.42 73.04"
/>
<path stroke="#808080" vector-effect="non-scaling-stroke" d="
  M 288.47 94.33
  A 1.11 1.11 0.0 0 0 287.36 93.22
  L 179.76 93.22
  A 1.11 1.11 0.0 0 0 178.65 94.33
  L 178.65 120.21
  A 1.11 1.11 0.0 0 0 179.76 121.32
  L 287.36 121.32
  A 1.11 1.11 0.0 0 0 288.47 120.21
  L 288.47 94.33"
/>
<path stroke="#808080" vector-effect="non-scaling-stroke" d="
  M 276.10 225.24
  A 1.46 1.46 0.0 0 0 274.64 223.78
  L 192.18 223.78
  A 1.46 1.46 0.0 0 0 190.72 225.24
  L 190.72 249.78
  A 1.46 1.46 0.0 0 0 192.18 251.24
  L 274.64 251.24
  A 1.46 1.46 0.0 0 0 276.10 249.78
  L 276.10 225.24"
/>
<path stroke="#808080" vector-effect="non-scaling-stroke" d="
  M 577.47 355.89
  A 1.14 1.14 0.0 0 0 576.33 354.75
  L 550.39 354.75
  A 1.14 1.14 0.0 0 0 549.25 355.89
  L 549.25 356.13
  A 1.14 1.14 0.0 0 0 550.39 357.27
  L 576.33 357.27
  A 1.14 1.14 0.0 0 0 577.47 356.13
  L 577.47 355.89"
/>
<path stroke="#808080" vector-effect="non-scaling-stroke" d="
  M 577.4194 363.0555
  A 0.95 0.95 0.0 0 0 576.4678 362.1071
  L 550.2678 362.1529
  A 0.95 0.95 0.0 0 0 549.3195 363.1045
  L 549.3206 363.7245
  A 0.95 0.95 0.0 0 0 550.2722 364.6729
  L 576.4722 364.6271
  A 0.95 0.95 0.0 0 0 577.4205 363.6755
  L 577.4194 363.0555"
/>
<path stroke="#808080" vector-effect="non-scaling-stroke" d="
  M 577.39 370.44
  A 0.96 0.96 0.0 0 0 576.43 369.48
  L 550.27 369.48
  A 0.96 0.96 0.0 0 0 549.31 370.44
  L 549.31 371.60
  A 0.96 0.96 0.0 0 0 550.27 372.56
  L 576.43 372.56
  A 0.96 0.96 0.0 0 0 577.39 371.60
  L 577.39 370.44"
/>
<path stroke="#808080" vector-effect="non-scaling-stroke" d="
  M 820.51 349.42
  A 0.49 0.49 0.0 0 0 820.02 348.93
  L 777.06 348.93
  A 0.49 0.49 0.0 0 0 776.57 349.42
  L 776.57 361.26
  A 0.49 0.49 0.0 0 0 777.06 361.75
  L 820.02 361.75
  A 0.49 0.49 0.0 0 0 820.51 361.26
  L 820.51 349.42"
/>
<path stroke="#808080" vector-effect="non-scaling-stroke" d="
  M 820.50 369.48
  A 0.41 0.41 0.0 0 0 820.09 369.07
  L 776.97 369.07
  A 0.41 0.41 0.0 0 0 776.56 369.48
  L 776.56 381.50
  A 0.41 0.41 0.0 0 0 776.97 381.91
  L 820.09 381.91
  A 0.41 0.41 0.0 0 0 820.50 381.50
  L 820.50 369.48"
/>
<path stroke="#808080" vector-effect="non-scaling-stroke" d="
  M 820.50 389.64
  A 0.40 0.40 0.0 0 0 820.10 389.24
  L 776.98 389.24
  A 0.40 0.40 0.0 0 0 776.58 389.64
  L 776.58 405.00
  A 0.40 0.40 0.0 0 0 776.98 405.40
  L 820.10 405.40
  A 0.40 0.40 0.0 0 0 820.50 405.00
  L 820.50 389.64"
/>
<path stroke="#808080" vector-effect="non-scaling-stroke" d="
  M 212.59 341.52
  A 0.48 0.48 0.0 0 0 212.11 341.04
  L 173.97 341.04
  A 0.48 0.48 0.0 0 0 173.49 341.52
  L 173.49 405.16
  A 0.48 0.48 0.0 0 0 173.97 405.64
  L 212.11 405.64
  A 0.48 0.48 0.0 0 0 212.59 405.16
  L 212.59 341.52"
/>
<path stroke="#808080" vector-effect="non-scaling-stroke" d="
  M 297.7155 342.1515
  A 0.45 0.45 0.0 0 0 297.2647 341.7023
  L 276.9847 341.7377
  A 0.45 0.45 0.0 0 0 276.5355 342.1885
  L 276.5645 358.7885
  A 0.45 0.45 0.0 0 0 277.0153 359.2377
  L 297.2953 359.2023
  A 0.45 0.45 0.0 0 0 297.7445 358.7515
  L 297.7155 342.1515"
/>
<path stroke="#808080" vector-effect="non-scaling-stroke" d="
  M 197.08 376.98
  A 0.58 0.58 0.0 0 1 196.50 376.40
  L 196.50 364.07
  A 0.58 0.58 0.0 0 1 197.08 363.49
  L 210.24 363.50
  A 0.58 0.58 0.0 0 0 210.82 362.93
  L 210.89 357.39
  A 0.58 0.58 0.0 0 0 210.31 356.80
  L 197.08 356.80
  A 0.58 0.58 0.0 0 1 196.50 356.22
  L 196.49 344.55
  A 0.58 0.58 0.0 0 0 195.89 343.98
  L 190.23 344.22
  A 0.58 0.58 0.0 0 0 189.67 344.80
  L 189.69 356.23
  A 0.58 0.58 0.0 0 1 189.11 356.81
  L 175.81 356.78
  A 0.58 0.58 0.0 0 0 175.23 357.36
  L 175.20 362.92
  A 0.58 0.58 0.0 0 0 175.78 363.50
  L 189.14 363.48
  A 0.58 0.58 0.0 0 1 189.72 364.06
  L 189.70 376.40
  A 0.58 0.58 0.0 0 1 189.12 376.98
  L 178.72 376.99
  A 0.58 0.58 0.0 0 0 178.14 377.57
  L 178.14 400.69
  A 0.58 0.58 0.0 0 0 178.72 401.27
  L 207.42 401.26
  A 0.58 0.58 0.0 0 0 208.00 400.68
  L 208.00 377.59
  A 0.58 0.58 0.0 0 0 207.42 377.01
  L 197.08 376.98"
/>
<path stroke="#808080" vector-effect="non-scaling-stroke" d="
  M 201.1894 383.7343
  A 0.48 0.48 0.0 0 0 200.7102 383.2534
  L 185.3302 383.2266
  A 0.48 0.48 0.0 0 0 184.8494 383.7057
  L 184.8306 394.4457
  A 0.48 0.48 0.0 0 0 185.3098 394.9266
  L 200.6898 394.9534
  A 0.48 0.48 0.0 0 0 201.1706 394.4743
  L 201.1894 383.7343"
/>
<path stroke="#808080" vector-effect="non-scaling-stroke" d="
  M 1189.84 383.35
  A 0.59 0.59 0.0 0 0 1189.25 382.76
  L 1147.45 382.76
  A 0.59 0.59 0.0 0 0 1146.86 383.35
  L 1146.86 389.13
  A 0.59 0.59 0.0 0 0 1147.45 389.72
  L 1189.25 389.72
  A 0.59 0.59 0.0 0 0 1189.84 389.13
  L 1189.84 383.35"
/>
<path stroke="#808080" vector-effect="non-scaling-stroke" d="
  M 1189.82 397.26
  A 0.52 0.52 0.0 0 0 1189.30 396.74
  L 1147.38 396.74
  A 0.52 0.52 0.0 0 0 1146.86 397.26
  L 1146.86 405.60
  A 0.52 0.52 0.0 0 0 1147.38 406.12
  L 1189.30 406.12
  A 0.52 0.52 0.0 0 0 1189.82 405.60
  L 1189.82 397.26"
/>
<path stroke="#808080" vector-effect="non-scaling-stroke" d="
  M 457.86 379.96
  A 0.64 0.64 0.0 0 0 457.22 379.32
  L 431.62 379.32
  A 0.64 0.64 0.0 0 0 430.98 379.96
  L 430.98 387.82
  A 0.64 0.64 0.0 0 0 431.62 388.46
  L 457.22 388.46
  A 0.64 0.64 0.0 0 0 457.86 387.82
  L 457.86 379.96"
/>
<path stroke="#808080" vector-effect="non-scaling-stroke" d="
  M 457.86 395.73
  A 0.51 0.51 0.0 0 0 457.35 395.22
  L 431.49 395.22
  A 0.51 0.51 0.0 0 0 430.98 395.73
  L 430.98 405.49
  A 0.51 0.51 0.0 0 0 431.49 406.00
  L 457.35 406.00
  A 0.51 0.51 0.0 0 0 457.86 405.49
  L 457.86 395.73"
/>
</g>
<path fill="#ffffff" d="
  M 0.00 0.00
  L 1340.00 0.00
  L 1340.00 428.00
  L 0.00 428.00
  L 0.00 0.00
  Z
  M 247.94 29.77
  A 1.43 1.43 0.0 0 1 246.51 28.34
  L 246.50 7.54
  A 1.43 1.43 0.0 0 0 245.07 6.11
  L 221.99 6.14
  A 1.43 1.43 0.0 0 0 220.56 7.57
  L 220.59 28.34
  A 1.43 1.43 0.0 0 1 219.16 29.77
  L 96.94 29.78
  A 1.43 1.43 0.0 0 0 95.51 31.21
  L 95.51 54.29
  A 1.43 1.43 0.0 0 0 96.94 55.72
  L 370.63 55.72
  A 1.43 1.43 0.0 0 0 372.06 54.29
  L 372.08 31.20
  A 1.43 1.43 0.0 0 0 370.65 29.77
  L 247.94 29.77
  Z
  M 1059.09 22.56
  A 1.35 1.35 0.0 0 1 1057.74 21.21
  L 1057.75 7.62
  A 1.35 1.35 0.0 0 0 1056.40 6.27
  L 1033.86 6.33
  A 1.35 1.35 0.0 0 0 1032.51 7.68
  L 1032.52 21.21
  A 1.35 1.35 0.0 0 1 1031.17 22.56
  L 973.38 22.55
  A 1.35 1.35 0.0 0 0 972.02 23.91
  L 972.10 43.12
  A 1.35 1.35 0.0 0 0 973.45 44.47
  L 1116.85 44.47
  A 1.35 1.35 0.0 0 0 1118.20 43.12
  L 1118.23 23.89
  A 1.35 1.35 0.0 0 0 1116.88 22.54
  L 1059.09 22.56
  Z
  M 661.95 94.56
  L 661.95 106.56
  A 1.88 1.87 -24.6 0 1 661.49 107.79
  L 535.51 250.76
  A 2.97 2.96 65.7 0 0 534.77 252.72
  L 534.75 289.45
  A 0.87 0.87 0.0 0 0 536.27 290.02
  L 660.30 149.25
  A 0.92 0.92 0.0 0 1 661.91 149.85
  L 661.89 299.93
  A 1.54 1.53 0.0 0 0 663.43 301.46
  L 687.12 301.51
  A 1.62 1.61 -89.8 0 0 688.74 299.89
  L 688.74 147.50
  A 0.92 0.86 -88.2 0 1 689.66 146.58
  Q 689.95 146.60 690.39 147.10
  Q 752.49 217.38 815.21 288.44
  A 1.04 1.04 0.0 0 0 817.03 287.75
  L 817.04 252.01
  A 3.33 3.31 -65.9 0 0 816.21 249.81
  L 689.43 106.07
  A 2.72 2.69 24.5 0 1 688.75 104.28
  L 688.71 94.65
  Q 688.71 93.51 689.85 93.51
  L 812.99 93.50
  A 0.75 0.74 0.0 0 0 813.74 92.76
  L 813.72 68.76
  Q 813.72 67.81 812.76 67.81
  L 690.52 67.80
  A 1.78 1.78 0.0 0 1 688.74 66.02
  L 688.74 9.27
  Q 688.74 8.03 687.50 8.04
  L 663.42 8.09
  A 1.50 1.49 0.0 0 0 661.92 9.58
  L 661.89 66.15
  A 1.66 1.66 0.0 0 1 660.23 67.81
  L 539.24 67.81
  A 1.21 1.20 -0.0 0 0 538.03 69.01
  L 538.05 92.28
  Q 538.05 93.50 539.28 93.50
  L 660.90 93.51
  A 1.05 1.05 0.0 0 1 661.95 94.56
  Z
  M 1236.22 187.36
  Q 1234.59 187.36 1234.59 185.72
  L 1234.57 50.06
  A 1.27 1.26 90.0 0 0 1233.31 48.79
  L 1187.93 48.78
  A 1.18 1.18 0.0 0 1 1186.77 47.41
  Q 1186.95 46.28 1187.60 44.76
  Q 1194.90 27.68 1202.03 10.57
  A 1.48 1.47 25.8 0 0 1201.38 8.71
  Q 1201.29 8.66 1200.50 8.64
  Q 1189.88 8.39 1179.25 8.47
  Q 1177.04 8.49 1175.78 8.76
  A 0.98 0.95 4.5 0 0 1175.09 9.33
  L 1159.18 47.00
  A 2.97 2.95 -78.4 0 1 1156.46 48.80
  L 1111.23 48.78
  A 1.24 1.24 0.0 0 0 1109.99 50.02
  L 1110.00 72.51
  A 0.76 0.76 0.0 0 0 1110.76 73.27
  L 1146.58 73.27
  A 1.11 1.11 0.0 0 1 1147.60 74.81
  L 1136.06 102.23
  A 1.38 1.37 44.0 0 1 1133.55 102.27
  C 1132.17 99.29 1130.49 97.27 1126.87 97.28
  Q 1114.18 97.34 1101.39 97.32
  A 0.71 0.71 0.0 0 0 1100.69 98.14
  Q 1100.79 98.82 1101.39 99.63
  Q 1112.43 114.45 1123.65 129.14
  A 1.72 1.71 37.8 0 1 1123.87 130.84
  L 1099.96 187.47
  A 0.68 0.57 26.9 0 0 1100.29 188.23
  Q 1100.50 188.36 1101.00 188.36
  Q 1113.62 188.50 1125.92 188.53
  A 1.69 1.67 -78.2 0 0 1127.46 187.51
  L 1141.22 154.96
  A 1.14 1.14 0.0 0 1 1142.81 154.40
  Q 1143.31 154.68 1143.86 155.39
  Q 1158.26 174.07 1172.68 192.92
  A 2.00 1.99 71.3 0 0 1174.27 193.71
  L 1201.80 193.70
  A 0.97 0.97 0.0 0 0 1202.57 192.14
  L 1153.75 128.51
  A 2.89 2.88 37.8 0 1 1153.38 125.62
  L 1174.86 75.23
  Q 1175.70 73.27 1177.82 73.27
  L 1207.28 73.26
  A 1.78 1.77 -0.0 0 1 1209.06 75.03
  L 1209.06 209.09
  A 1.87 1.87 0.0 0 0 1210.93 210.96
  L 1261.20 210.95
  A 1.90 1.89 90.0 0 0 1263.09 209.05
  L 1263.10 189.13
  A 1.71 1.71 0.0 0 0 1261.39 187.42
  L 1236.22 187.36
  Z
  M 1098.90 53.35
  A 1.99 1.99 0.0 0 0 1096.91 51.36
  L 993.41 51.36
  A 1.99 1.99 0.0 0 0 991.42 53.35
  L 991.42 100.81
  A 1.99 1.99 0.0 0 0 993.41 102.80
  L 1096.91 102.80
  A 1.99 1.99 0.0 0 0 1098.90 100.81
  L 1098.90 53.35
  Z
  M 313.64 70.89
  A 1.51 1.51 0.0 0 0 312.13 69.38
  L 154.67 69.38
  A 1.51 1.51 0.0 0 0 153.16 70.89
  L 153.16 143.23
  A 1.51 1.51 0.0 0 0 154.67 144.74
  L 312.13 144.74
  A 1.51 1.51 0.0 0 0 313.64 143.23
  L 313.64 70.89
  Z
  M 1069.62 152.36
  L 1104.24 112.50
  Q 1105.43 111.14 1103.76 110.57
  Q 1103.37 110.44 1102.00 110.44
  Q 1045.21 110.49 988.05 110.49
  A 1.56 1.56 0.0 0 0 986.49 112.05
  L 986.49 128.93
  A 1.69 1.69 0.0 0 0 988.18 130.62
  L 1056.49 130.64
  Q 1058.59 130.64 1057.22 132.22
  L 1052.15 138.07
  Q 1050.80 139.63 1048.73 139.64
  L 1037.53 139.68
  A 1.04 1.04 0.0 0 0 1036.50 140.72
  L 1036.46 157.77
  A 1.18 1.18 0.0 0 1 1035.45 158.94
  L 974.02 167.56
  A 1.43 1.43 0.0 0 0 972.79 168.98
  L 972.80 189.76
  A 1.07 1.07 0.0 0 0 974.02 190.82
  L 1034.76 182.05
  A 1.51 1.51 0.0 0 1 1036.49 183.54
  L 1036.49 192.71
  A 0.96 0.95 90.0 0 1 1035.54 193.67
  L 1013.51 193.69
  A 0.79 0.79 0.0 0 0 1012.72 194.49
  L 1012.73 214.25
  Q 1012.73 215.26 1013.75 215.26
  L 1060.71 215.25
  A 1.72 1.71 -89.8 0 0 1062.42 213.54
  L 1062.46 178.70
  A 0.85 0.85 0.0 0 1 1063.20 177.86
  L 1097.97 173.04
  A 1.78 1.77 86.3 0 0 1099.50 171.29
  L 1099.51 151.45
  Q 1099.51 149.85 1097.93 150.07
  L 1070.50 153.97
  Q 1067.89 154.35 1069.62 152.36
  Z
  M 129.44 184.99
  A 1.63 1.63 0.0 0 1 131.07 183.36
  L 335.78 183.35
  A 1.63 1.63 0.0 0 1 337.41 184.98
  L 337.43 299.98
  A 1.63 1.63 0.0 0 0 339.06 301.61
  L 362.28 301.57
  A 1.63 1.63 0.0 0 0 363.91 299.94
  L 363.91 160.52
  A 1.63 1.63 0.0 0 0 362.28 158.89
  L 104.56 158.90
  A 1.63 1.63 0.0 0 0 102.93 160.53
  L 102.93 299.99
  A 1.63 1.63 0.0 0 0 104.56 301.62
  L 127.80 301.58
  A 1.63 1.63 0.0 0 0 129.43 299.95
  L 129.44 184.99
  Z
  M 1104.55 251.03
  L 1104.54 272.60
  Q 1104.54 273.25 1103.89 273.25
  L 976.14 273.25
  A 1.49 1.48 -0.0 0 0 974.65 274.73
  L 974.62 297.44
  A 0.64 0.64 0.0 0 0 975.26 298.08
  L 1260.49 298.08
  A 0.82 0.82 0.0 0 0 1261.31 297.26
  L 1261.27 274.79
  Q 1261.26 273.25 1259.72 273.25
  L 1132.26 273.25
  A 1.49 1.48 -90.0 0 1 1130.78 271.76
  L 1130.78 250.78
  A 0.75 0.74 -3.5 0 1 1131.44 250.04
  Q 1133.97 249.71 1136.75 249.71
  Q 1181.24 249.75 1225.85 249.77
  Q 1227.09 249.77 1227.09 248.52
  L 1227.04 226.77
  A 1.52 1.52 0.0 0 0 1225.52 225.26
  L 1132.77 225.26
  A 1.99 1.99 0.0 0 1 1130.78 223.27
  L 1130.77 195.23
  Q 1130.77 193.68 1129.23 193.68
  L 1105.29 193.70
  A 0.76 0.76 0.0 0 0 1104.53 194.46
  L 1104.56 223.72
  A 1.54 1.53 -90.0 0 1 1103.03 225.26
  L 1009.91 225.26
  Q 1008.08 225.26 1008.08 227.09
  L 1008.08 248.17
  Q 1008.08 249.75 1009.67 249.75
  L 1103.28 249.76
  A 1.27 1.27 0.0 0 1 1104.55 251.03
  Z
  M 301.20 201.72
  A 1.62 1.62 0.0 0 0 299.58 200.10
  L 167.24 200.10
  A 1.62 1.62 0.0 0 0 165.62 201.72
  L 165.62 273.94
  A 1.62 1.62 0.0 0 0 167.24 275.56
  L 299.58 275.56
  A 1.62 1.62 0.0 0 0 301.20 273.94
  L 301.20 201.72
  Z
  M 555.37 332.42
  A 0.50 0.50 0.0 0 0 554.97 332.22
  L 547.80 332.23
  A 0.50 0.50 0.0 0 0 547.41 333.04
  L 551.00 337.55
  A 0.50 0.50 0.0 0 0 551.39 337.74
  L 558.38 337.77
  A 0.50 0.50 0.0 0 0 558.78 336.97
  L 555.37 332.42
  Z
  M 575.36 338.44
  A 0.39 0.39 0.0 0 1 575.04 337.82
  L 578.82 332.87
  A 0.39 0.39 0.0 0 0 578.51 332.24
  L 570.93 332.23
  A 0.39 0.39 0.0 0 0 570.61 332.39
  L 566.25 338.32
  A 0.39 0.39 0.0 0 1 565.93 338.48
  L 536.13 338.38
  A 0.39 0.39 0.0 0 0 535.74 338.77
  L 535.75 344.30
  A 0.39 0.39 0.0 0 0 536.14 344.69
  L 556.03 344.72
  A 0.39 0.39 0.0 0 1 556.35 345.32
  L 554.16 348.67
  A 0.39 0.39 0.0 0 1 553.83 348.85
  L 542.88 348.79
  A 0.39 0.39 0.0 0 0 542.49 349.18
  L 542.49 378.12
  A 0.39 0.39 0.0 0 0 542.88 378.51
  L 583.87 378.50
  A 0.39 0.39 0.0 0 0 584.26 378.11
  L 584.26 349.23
  A 0.39 0.39 0.0 0 0 583.87 348.84
  L 562.50 348.82
  A 0.39 0.39 0.0 0 1 562.18 348.21
  L 564.55 344.85
  A 0.39 0.39 0.0 0 1 564.87 344.68
  L 590.03 344.72
  A 0.39 0.39 0.0 0 0 590.42 344.33
  L 590.44 338.73
  A 0.39 0.39 0.0 0 0 590.05 338.34
  L 575.36 338.44
  Z
  M 795.19 341.50
  A 0.33 0.33 0.0 0 1 794.92 340.98
  L 800.77 332.72
  A 0.33 0.33 0.0 0 0 800.50 332.20
  L 791.67 332.23
  A 0.33 0.33 0.0 0 0 791.40 332.37
  L 785.29 341.36
  A 0.33 0.33 0.0 0 1 785.02 341.50
  L 769.44 341.51
  A 0.33 0.33 0.0 0 0 769.11 341.84
  L 769.14 412.43
  A 0.33 0.33 0.0 0 0 769.47 412.76
  L 827.80 412.76
  A 0.33 0.33 0.0 0 0 828.13 412.43
  L 828.13 341.83
  A 0.33 0.33 0.0 0 0 827.80 341.50
  L 795.19 341.50
  Z
  M 917.53 346.41
  A 0.61 0.61 0.0 0 1 916.92 347.02
  L 887.15 347.02
  A 0.61 0.61 0.0 0 0 886.54 347.63
  L 886.56 353.58
  A 0.61 0.61 0.0 0 0 887.17 354.19
  L 955.86 354.16
  A 0.61 0.61 0.0 0 0 956.47 353.55
  L 956.45 347.63
  A 0.61 0.61 0.0 0 0 955.84 347.02
  L 925.51 347.03
  A 0.61 0.61 0.0 0 1 924.90 346.42
  L 925.00 332.91
  A 0.61 0.61 0.0 0 0 924.39 332.30
  L 918.14 332.28
  A 0.61 0.61 0.0 0 0 917.53 332.89
  L 917.53 346.41
  Z
  M 1064.62 343.76
  A 0.37 0.37 0.0 0 1 1064.32 343.18
  L 1071.65 332.82
  A 0.37 0.37 0.0 0 0 1071.34 332.23
  L 1063.37 332.27
  A 0.37 0.37 0.0 0 0 1063.07 332.43
  L 1055.19 343.62
  A 0.37 0.37 0.0 0 1 1054.89 343.78
  L 1007.90 343.77
  A 0.37 0.37 0.0 0 0 1007.53 344.14
  L 1007.60 364.05
  A 0.37 0.37 0.0 0 0 1007.97 364.42
  L 1014.42 364.41
  A 0.37 0.37 0.0 0 0 1014.79 364.04
  L 1014.76 351.17
  A 0.37 0.37 0.0 0 1 1015.13 350.80
  L 1074.91 350.82
  A 0.37 0.37 0.0 0 1 1075.28 351.19
  L 1075.22 364.02
  A 0.37 0.37 0.0 0 0 1075.59 364.40
  L 1082.12 364.48
  A 0.37 0.37 0.0 0 0 1082.50 364.11
  L 1082.50 344.16
  A 0.37 0.37 0.0 0 0 1082.13 343.79
  L 1064.62 343.76
  Z
  M 151.46 373.30
  A 0.17 0.17 0.0 0 1 151.79 373.36
  L 151.80 413.48
  Q 151.80 413.90 152.23 413.90
  L 158.46 413.87
  Q 158.84 413.86 158.84 413.48
  L 158.78 353.49
  A 8.51 8.37 55.2 0 1 159.26 350.68
  L 165.41 333.17
  A 0.30 0.30 0.0 0 0 165.13 332.77
  L 158.29 332.73
  Q 157.96 332.73 157.85 333.04
  L 142.46 376.98
  Q 142.08 378.07 143.23 378.07
  L 148.39 378.09
  Q 149.63 378.10 150.07 376.94
  L 151.46 373.30
  Z
  M 342.75 333.31
  A 0.58 0.58 0.0 0 0 342.17 332.73
  L 335.79 332.73
  A 0.58 0.58 0.0 0 0 335.21 333.31
  L 335.21 413.33
  A 0.58 0.58 0.0 0 0 335.79 413.91
  L 342.17 413.91
  A 0.58 0.58 0.0 0 0 342.75 413.33
  L 342.75 333.31
  Z
  M 398.25 387.11
  A 0.53 0.53 0.0 0 1 399.01 387.59
  L 398.99 413.36
  A 0.53 0.53 0.0 0 0 399.52 413.89
  L 405.55 413.89
  A 0.53 0.53 0.0 0 0 406.08 413.36
  L 406.07 383.52
  A 0.53 0.53 0.0 0 1 406.37 383.05
  L 415.46 378.67
  A 0.53 0.53 0.0 0 0 415.76 378.20
  L 415.86 371.51
  A 0.53 0.53 0.0 0 0 415.10 371.02
  L 406.85 374.94
  A 0.53 0.53 0.0 0 1 406.09 374.46
  L 406.09 355.76
  A 0.53 0.53 0.0 0 1 406.62 355.23
  L 416.36 355.23
  A 0.53 0.53 0.0 0 0 416.89 354.70
  L 416.90 348.72
  A 0.53 0.53 0.0 0 0 416.37 348.19
  L 406.59 348.21
  A 0.53 0.53 0.0 0 1 406.06 347.68
  L 406.12 333.27
  A 0.53 0.53 0.0 0 0 405.59 332.74
  L 399.48 332.75
  A 0.53 0.53 0.0 0 0 398.95 333.28
  L 399.04 347.62
  A 0.53 0.53 0.0 0 1 398.51 348.16
  L 389.07 348.25
  A 0.53 0.53 0.0 0 0 388.55 348.77
  L 388.54 354.69
  A 0.53 0.53 0.0 0 0 389.07 355.22
  L 398.47 355.23
  A 0.53 0.53 0.0 0 1 399.00 355.76
  L 399.00 378.43
  A 0.53 0.53 0.0 0 1 398.70 378.91
  L 388.83 383.76
  A 0.53 0.53 0.0 0 0 388.53 384.24
  L 388.53 390.94
  A 0.53 0.53 0.0 0 0 389.29 391.42
  L 398.25 387.11
  Z
  M 429.11 361.48
  A 0.49 0.49 0.0 0 1 428.62 360.99
  L 428.61 355.38
  A 0.49 0.49 0.0 0 1 428.96 354.91
  L 465.26 344.10
  A 0.49 0.49 0.0 0 0 465.61 343.64
  L 465.63 337.36
  A 0.49 0.49 0.0 0 0 465.00 336.89
  L 429.21 347.52
  A 0.49 0.49 0.0 0 1 428.58 347.05
  L 428.64 333.22
  A 0.49 0.49 0.0 0 0 428.15 332.73
  L 421.99 332.74
  A 0.49 0.49 0.0 0 0 421.50 333.23
  L 421.50 367.96
  A 0.49 0.49 0.0 0 0 421.99 368.45
  L 467.88 368.45
  A 0.49 0.49 0.0 0 0 468.37 367.96
  L 468.42 361.97
  A 0.49 0.49 0.0 0 0 467.93 361.48
  L 429.11 361.48
  Z
  M 1023.68 342.03
  A 0.37 0.37 0.0 0 0 1023.98 342.19
  L 1031.89 342.25
  A 0.37 0.37 0.0 0 0 1032.20 341.67
  L 1026.17 333.03
  A 0.37 0.37 0.0 0 0 1025.87 332.87
  L 1018.09 332.84
  A 0.37 0.37 0.0 0 0 1017.79 333.42
  L 1023.68 342.03
  Z
  M 1040.75 342.04
  A 0.40 0.40 0.0 0 0 1041.08 342.21
  L 1048.77 342.28
  A 0.40 0.40 0.0 0 0 1049.10 341.65
  L 1043.13 333.05
  A 0.40 0.40 0.0 0 0 1042.80 332.88
  L 1035.17 332.85
  A 0.40 0.40 0.0 0 0 1034.84 333.48
  L 1040.75 342.04
  Z
  M 1130.69 339.52
  A 0.63 0.63 0.0 0 0 1131.32 340.15
  L 1156.86 340.09
  A 0.63 0.63 0.0 0 1 1157.49 340.72
  L 1157.47 370.36
  A 0.63 0.63 0.0 0 0 1158.10 370.99
  L 1164.06 370.97
  A 0.63 0.63 0.0 0 0 1164.69 370.34
  L 1164.71 333.84
  A 0.63 0.63 0.0 0 0 1164.08 333.21
  L 1131.31 333.21
  A 0.63 0.63 0.0 0 0 1130.68 333.84
  L 1130.69 339.52
  Z
  M 1198.24 340.08
  A 0.53 0.53 0.0 0 1 1198.77 340.61
  L 1198.75 370.45
  A 0.53 0.53 0.0 0 0 1199.28 370.98
  L 1205.32 370.96
  A 0.53 0.53 0.0 0 0 1205.85 370.43
  L 1205.89 333.74
  A 0.53 0.53 0.0 0 0 1205.36 333.21
  L 1171.42 333.20
  A 0.53 0.53 0.0 0 0 1170.89 333.73
  L 1170.89 339.57
  A 0.53 0.53 0.0 0 0 1171.42 340.10
  L 1198.24 340.08
  Z
  M 219.73 334.84
  A 0.60 0.60 0.0 0 0 219.13 334.24
  L 167.09 334.24
  A 0.60 0.60 0.0 0 0 166.49 334.84
  L 166.49 411.98
  A 0.60 0.60 0.0 0 0 167.09 412.58
  L 219.13 412.58
  A 0.60 0.60 0.0 0 0 219.73 411.98
  L 219.73 334.84
  Z
  M 283.24 366.23
  A 0.50 0.50 0.0 0 1 283.70 366.92
  L 265.03 413.19
  A 0.50 0.50 0.0 0 0 265.49 413.88
  L 271.98 413.98
  A 0.50 0.50 0.0 0 0 272.45 413.66
  L 286.19 379.44
  A 0.50 0.50 0.0 0 1 286.66 379.13
  L 296.47 379.17
  A 0.50 0.50 0.0 0 1 296.97 379.67
  L 296.98 405.76
  A 0.50 0.50 0.0 0 1 296.48 406.26
  L 288.74 406.32
  A 0.50 0.50 0.0 0 0 288.24 406.82
  L 288.26 412.47
  A 0.50 0.50 0.0 0 0 288.76 412.97
  L 303.69 412.95
  A 0.50 0.50 0.0 0 0 304.19 412.45
  L 304.25 372.85
  A 0.50 0.50 0.0 0 0 303.75 372.35
  L 289.73 372.46
  A 0.50 0.50 0.0 0 1 289.27 371.78
  L 291.35 366.54
  A 0.50 0.50 0.0 0 1 291.82 366.22
  L 304.57 366.24
  A 0.50 0.50 0.0 0 0 305.07 365.74
  L 305.07 335.21
  A 0.50 0.50 0.0 0 0 304.57 334.71
  L 269.91 334.72
  A 0.50 0.50 0.0 0 0 269.41 335.22
  L 269.41 365.74
  A 0.50 0.50 0.0 0 0 269.91 366.24
  L 283.24 366.23
  Z
  M 530.52 346.26
  A 0.48 0.48 0.0 0 0 531.12 345.78
  L 530.98 339.80
  A 0.48 0.48 0.0 0 0 530.62 339.35
  L 515.10 335.42
  A 0.48 0.48 0.0 0 0 514.50 335.89
  L 514.49 341.83
  A 0.48 0.48 0.0 0 0 514.85 342.29
  L 530.52 346.26
  Z
  M 320.73 340.54
  A 0.54 0.54 0.0 0 0 320.19 340.00
  L 313.83 340.00
  A 0.54 0.54 0.0 0 0 313.29 340.54
  L 313.29 395.00
  A 0.54 0.54 0.0 0 0 313.83 395.54
  L 320.19 395.54
  A 0.54 0.54 0.0 0 0 320.73 395.00
  L 320.73 340.54
  Z
  M 1185.88 352.27
  A 0.76 0.76 0.0 0 0 1186.80 351.53
  L 1186.85 346.44
  A 0.76 0.76 0.0 0 0 1186.25 345.69
  L 1168.95 342.08
  A 0.76 0.76 0.0 0 0 1168.04 342.82
  L 1168.01 347.82
  A 0.76 0.76 0.0 0 0 1168.61 348.57
  L 1185.88 352.27
  Z
  M 1148.63 353.22
  A 0.46 0.46 0.0 0 0 1149.18 352.77
  L 1149.21 347.12
  A 0.46 0.46 0.0 0 0 1148.84 346.66
  L 1130.89 342.99
  A 0.46 0.46 0.0 0 0 1130.33 343.44
  L 1130.26 349.03
  A 0.46 0.46 0.0 0 0 1130.63 349.49
  L 1148.63 353.22
  Z
  M 1197.20 356.58
  A 0.69 0.69 0.0 0 0 1197.61 355.95
  L 1197.59 349.98
  A 0.69 0.69 0.0 0 0 1196.62 349.36
  L 1168.59 361.95
  A 0.69 0.69 0.0 0 0 1168.18 362.58
  L 1168.21 368.58
  A 0.69 0.69 0.0 0 0 1169.19 369.20
  L 1197.20 356.58
  Z
  M 670.30 372.45
  A 0.60 0.60 0.0 0 1 670.30 373.29
  L 652.54 391.09
  A 0.60 0.60 0.0 0 0 652.54 391.94
  L 656.09 395.45
  A 0.60 0.60 0.0 0 0 656.94 395.44
  L 674.54 377.60
  A 0.60 0.60 0.0 0 1 675.40 377.60
  L 693.14 395.41
  A 0.60 0.60 0.0 0 0 693.99 395.41
  L 697.51 391.92
  A 0.60 0.60 0.0 0 0 697.51 391.07
  L 679.76 373.29
  A 0.60 0.60 0.0 0 1 679.76 372.45
  L 697.49 354.68
  A 0.60 0.60 0.0 0 0 697.49 353.84
  L 694.01 350.34
  A 0.60 0.60 0.0 0 0 693.16 350.34
  L 675.41 368.15
  A 0.60 0.60 0.0 0 1 674.56 368.15
  L 656.94 350.29
  A 0.60 0.60 0.0 0 0 656.08 350.29
  L 652.55 353.84
  A 0.60 0.60 0.0 0 0 652.55 354.68
  L 670.30 372.45
  Z
  M 524.13 360.68
  L 524.13 374.27
  A 1.34 1.33 -14.2 0 1 523.42 375.45
  L 512.07 381.58
  A 0.54 0.54 0.0 0 0 511.78 382.06
  L 511.76 389.21
  A 0.25 0.25 0.0 0 0 512.12 389.43
  L 527.78 381.03
  A 1.58 1.57 -42.2 0 1 529.37 381.10
  C 532.79 383.28 537.87 387.02 542.04 387.02
  Q 566.86 387.02 591.53 387.00
  A 0.26 0.26 0.0 0 0 591.79 386.75
  L 591.79 380.72
  A 0.32 0.32 0.0 0 0 591.47 380.40
  Q 568.05 380.45 544.53 380.49
  C 539.85 380.50 535.24 377.21 531.50 374.64
  Q 531.14 374.39 531.14 373.96
  L 531.17 353.92
  Q 531.17 353.42 530.67 353.42
  L 513.79 353.42
  Q 513.24 353.42 513.24 353.97
  L 513.25 359.48
  A 0.48 0.48 0.0 0 0 513.73 359.96
  L 523.43 359.98
  Q 524.13 359.98 524.13 360.68
  Z
  M 1155.23 361.72
  A 0.59 0.59 0.0 0 0 1155.58 361.18
  L 1155.54 355.00
  A 0.59 0.59 0.0 0 0 1154.71 354.46
  L 1130.07 365.61
  A 0.59 0.59 0.0 0 0 1129.72 366.15
  L 1129.74 372.35
  A 0.59 0.59 0.0 0 0 1130.57 372.88
  L 1155.23 361.72
  Z
  M 932.28 405.20
  A 0.54 0.54 0.0 0 1 931.77 404.50
  L 946.51 356.76
  A 0.54 0.54 0.0 0 0 945.99 356.06
  L 939.35 356.10
  A 0.54 0.54 0.0 0 0 938.83 356.48
  L 923.91 404.83
  A 0.54 0.54 0.0 0 1 923.39 405.21
  L 882.56 405.22
  A 0.54 0.54 0.0 0 0 882.02 405.76
  L 882.01 411.74
  A 0.54 0.54 0.0 0 0 882.55 412.28
  L 960.58 412.28
  A 0.54 0.54 0.0 0 0 961.12 411.74
  L 961.11 405.77
  A 0.54 0.54 0.0 0 0 960.57 405.23
  L 932.28 405.20
  Z
  M 1084.56 379.50
  A 0.33 0.33 0.0 0 0 1084.23 379.17
  L 1050.49 379.20
  A 0.33 0.33 0.0 0 1 1050.26 378.63
  L 1072.68 356.60
  A 0.33 0.33 0.0 0 0 1072.45 356.03
  L 1018.50 356.02
  A 0.33 0.33 0.0 0 0 1018.17 356.34
  L 1018.06 362.80
  A 0.33 0.33 0.0 0 0 1018.39 363.14
  L 1054.80 363.08
  A 0.33 0.33 0.0 0 1 1055.04 363.65
  L 1045.67 372.90
  A 0.33 0.33 0.0 0 1 1045.44 372.99
  L 1041.35 373.01
  A 0.33 0.33 0.0 0 0 1041.03 373.35
  L 1041.29 378.82
  A 0.33 0.33 0.0 0 1 1040.96 379.17
  L 1005.87 379.19
  A 0.33 0.33 0.0 0 0 1005.54 379.52
  L 1005.51 385.86
  A 0.33 0.33 0.0 0 0 1005.84 386.19
  L 1040.85 386.21
  A 0.33 0.33 0.0 0 1 1041.18 386.54
  L 1041.18 406.43
  A 0.33 0.33 0.0 0 1 1040.85 406.76
  L 1027.59 406.79
  A 0.33 0.33 0.0 0 0 1027.26 407.12
  L 1027.24 413.17
  A 0.33 0.33 0.0 0 0 1027.57 413.50
  L 1048.17 413.52
  A 0.33 0.33 0.0 0 0 1048.50 413.19
  L 1048.51 386.51
  A 0.33 0.33 0.0 0 1 1048.84 386.18
  L 1084.24 386.21
  A 0.33 0.33 0.0 0 0 1084.57 385.88
  L 1084.56 379.50
  Z
  M 904.01 358.46
  A 0.62 0.62 0.0 0 0 903.41 358.00
  L 897.12 358.00
  A 0.62 0.62 0.0 0 0 896.52 358.78
  L 907.79 400.94
  A 0.62 0.62 0.0 0 0 908.39 401.40
  L 914.77 401.40
  A 0.62 0.62 0.0 0 0 915.37 400.62
  L 904.01 358.46
  Z
  M 53.48 375.26
  Q 63.43 379.75 66.01 380.74
  Q 82.00 386.85 96.74 376.85
  A 0.47 0.46 -17.8 0 0 96.94 376.47
  L 96.94 368.51
  A 0.25 0.25 0.0 0 0 96.56 368.30
  C 86.79 374.50 78.33 377.26 67.02 372.60
  C 59.90 369.66 51.50 365.44 44.66 364.46
  Q 32.26 362.67 20.89 369.60
  Q 20.68 369.73 20.68 369.99
  L 20.73 378.48
  A 0.22 0.22 0.0 0 0 21.08 378.66
  Q 36.20 367.48 53.48 375.26
  Z
  M 1287.99 375.99
  C 1302.91 383.32 1315.30 386.55 1329.21 377.02
  Q 1329.70 376.68 1329.70 376.09
  L 1329.67 368.99
  A 0.63 0.63 0.0 0 0 1328.66 368.49
  Q 1317.51 377.10 1304.38 374.11
  C 1295.19 372.03 1286.74 365.95 1277.89 364.54
  Q 1265.38 362.54 1253.71 369.53
  Q 1253.48 369.67 1253.48 369.94
  L 1253.50 378.48
  A 0.22 0.22 0.0 0 0 1253.85 378.66
  Q 1269.67 366.99 1287.99 375.99
  Z
  M 1163.11 375.67
  A 0.51 0.51 0.0 0 1 1162.66 375.95
  L 1140.04 375.92
  A 0.51 0.51 0.0 0 0 1139.53 376.43
  L 1139.52 412.47
  A 0.51 0.51 0.0 0 0 1140.03 412.98
  L 1196.67 412.95
  A 0.51 0.51 0.0 0 0 1197.18 412.44
  L 1197.16 376.45
  A 0.51 0.51 0.0 0 0 1196.65 375.94
  L 1171.93 375.92
  A 0.51 0.51 0.0 0 1 1171.48 375.16
  L 1173.75 371.17
  A 0.51 0.51 0.0 0 0 1173.30 370.41
  L 1166.09 370.43
  A 0.51 0.51 0.0 0 0 1165.64 370.71
  L 1163.11 375.67
  Z
  M 465.19 372.93
  A 0.66 0.66 0.0 0 0 464.53 372.27
  L 424.53 372.27
  A 0.66 0.66 0.0 0 0 423.87 372.93
  L 423.87 412.29
  A 0.66 0.66 0.0 0 0 424.53 412.95
  L 464.53 412.95
  A 0.66 0.66 0.0 0 0 465.19 412.29
  L 465.19 372.93
  Z
  M 565.53 388.06
  A 0.57 0.57 0.0 0 0 564.95 388.66
  L 565.03 390.57
  A 0.57 0.57 0.0 0 1 564.46 391.17
  L 512.35 391.13
  A 0.57 0.57 0.0 0 0 511.78 391.69
  L 511.72 397.25
  A 0.57 0.57 0.0 0 0 512.29 397.83
  L 564.48 397.85
  A 0.57 0.57 0.0 0 1 565.05 398.42
  L 565.00 413.30
  A 0.57 0.57 0.0 0 0 565.57 413.87
  L 571.69 413.87
  A 0.57 0.57 0.0 0 0 572.26 413.30
  L 572.24 398.43
  A 0.57 0.57 0.0 0 1 572.81 397.86
  L 591.29 397.83
  A 0.57 0.57 0.0 0 0 591.86 397.25
  L 591.74 391.72
  A 0.57 0.57 0.0 0 0 591.17 391.16
  L 572.83 391.09
  A 0.57 0.57 0.0 0 1 572.26 390.50
  L 572.33 388.75
  A 0.57 0.57 0.0 0 0 571.77 388.16
  L 565.53 388.06
  Z
  M 538.73 411.55
  A 0.34 0.34 0.0 0 0 538.98 411.66
  L 547.43 411.67
  A 0.34 0.34 0.0 0 0 547.68 411.10
  L 538.58 400.88
  A 0.34 0.34 0.0 0 0 538.33 400.77
  L 529.96 400.79
  A 0.34 0.34 0.0 0 0 529.71 401.35
  L 538.73 411.55
  Z"
/>
<path fill="#000000" d="
  M 247.94 29.77
  L 370.65 29.77
  A 1.43 1.43 0.0 0 1 372.08 31.20
  L 372.06 54.29
  A 1.43 1.43 0.0 0 1 370.63 55.72
  L 96.94 55.72
  A 1.43 1.43 0.0 0 1 95.51 54.29
  L 95.51 31.21
  A 1.43 1.43 0.0 0 1 96.94 29.78
  L 219.16 29.77
  A 1.43 1.43 0.0 0 0 220.59 28.34
  L 220.56 7.57
  A 1.43 1.43 0.0 0 1 221.99 6.14
  L 245.07 6.11
  A 1.43 1.43 0.0 0 1 246.50 7.54
  L 246.51 28.34
  A 1.43 1.43 0.0 0 0 247.94 29.77
  Z"
/>
<path fill="#000000" d="
  M 1059.09 22.56
  L 1116.88 22.54
  A 1.35 1.35 0.0 0 1 1118.23 23.89
  L 1118.20 43.12
  A 1.35 1.35 0.0 0 1 1116.85 44.47
  L 973.45 44.47
  A 1.35 1.35 0.0 0 1 972.10 43.12
  L 972.02 23.91
  A 1.35 1.35 0.0 0 1 973.38 22.55
  L 1031.17 22.56
  A 1.35 1.35 0.0 0 0 1032.52 21.21
  L 1032.51 7.68
  A 1.35 1.35 0.0 0 1 1033.86 6.33
  L 1056.40 6.27
  A 1.35 1.35 0.0 0 1 1057.75 7.62
  L 1057.74 21.21
  A 1.35 1.35 0.0 0 0 1059.09 22.56
  Z"
/>
<path fill="#000000" d="
  M 661.95 94.56
  A 1.05 1.05 0.0 0 0 660.90 93.51
  L 539.28 93.50
  Q 538.05 93.50 538.05 92.28
  L 538.03 69.01
  A 1.21 1.20 0.0 0 1 539.24 67.81
  L 660.23 67.81
  A 1.66 1.66 0.0 0 0 661.89 66.15
  L 661.92 9.58
  A 1.50 1.49 -0.0 0 1 663.42 8.09
  L 687.50 8.04
  Q 688.74 8.03 688.74 9.27
  L 688.74 66.02
  A 1.78 1.78 0.0 0 0 690.52 67.80
  L 812.76 67.81
  Q 813.72 67.81 813.72 68.76
  L 813.74 92.76
  A 0.75 0.74 -0.0 0 1 812.99 93.50
  L 689.85 93.51
  Q 688.71 93.51 688.71 94.65
  L 688.75 104.28
  A 2.72 2.69 24.5 0 0 689.43 106.07
  L 816.21 249.81
  A 3.33 3.31 -65.9 0 1 817.04 252.01
  L 817.03 287.75
  A 1.04 1.04 0.0 0 1 815.21 288.44
  Q 752.49 217.38 690.39 147.10
  Q 689.95 146.60 689.66 146.58
  A 0.92 0.86 -88.2 0 0 688.74 147.50
  L 688.74 299.89
  A 1.62 1.61 -89.8 0 1 687.12 301.51
  L 663.43 301.46
  A 1.54 1.53 -0.0 0 1 661.89 299.93
  L 661.91 149.85
  A 0.92 0.92 0.0 0 0 660.30 149.25
  L 536.27 290.02
  A 0.87 0.87 0.0 0 1 534.75 289.45
  L 534.77 252.72
  A 2.97 2.96 65.7 0 1 535.51 250.76
  L 661.49 107.79
  A 1.88 1.87 -24.6 0 0 661.95 106.56
  L 661.95 94.56
  Z"
/>
<path fill="#000000" d="
  M 1236.22 187.36
  L 1261.39 187.42
  A 1.71 1.71 0.0 0 1 1263.10 189.13
  L 1263.09 209.05
  A 1.90 1.89 90.0 0 1 1261.20 210.95
  L 1210.93 210.96
  A 1.87 1.87 0.0 0 1 1209.06 209.09
  L 1209.06 75.03
  A 1.78 1.77 0.0 0 0 1207.28 73.26
  L 1177.82 73.27
  Q 1175.70 73.27 1174.86 75.23
  L 1153.38 125.62
  A 2.89 2.88 37.8 0 0 1153.75 128.51
  L 1202.57 192.14
  A 0.97 0.97 0.0 0 1 1201.80 193.70
  L 1174.27 193.71
  A 2.00 1.99 71.3 0 1 1172.68 192.92
  Q 1158.26 174.07 1143.86 155.39
  Q 1143.31 154.68 1142.81 154.40
  A 1.14 1.14 0.0 0 0 1141.22 154.96
  L 1127.46 187.51
  A 1.69 1.67 -78.2 0 1 1125.92 188.53
  Q 1113.62 188.50 1101.00 188.36
  Q 1100.50 188.36 1100.29 188.23
  A 0.68 0.57 26.9 0 1 1099.96 187.47
  L 1123.87 130.84
  A 1.72 1.71 37.8 0 0 1123.65 129.14
  Q 1112.43 114.45 1101.39 99.63
  Q 1100.79 98.82 1100.69 98.14
  A 0.71 0.71 0.0 0 1 1101.39 97.32
  Q 1114.18 97.34 1126.87 97.28
  C 1130.49 97.27 1132.17 99.29 1133.55 102.27
  A 1.38 1.37 44.0 0 0 1136.06 102.23
  L 1147.60 74.81
  A 1.11 1.11 0.0 0 0 1146.58 73.27
  L 1110.76 73.27
  A 0.76 0.76 0.0 0 1 1110.00 72.51
  L 1109.99 50.02
  A 1.24 1.24 0.0 0 1 1111.23 48.78
  L 1156.46 48.80
  A 2.97 2.95 -78.4 0 0 1159.18 47.00
  L 1175.09 9.33
  A 0.98 0.95 4.5 0 1 1175.78 8.76
  Q 1177.04 8.49 1179.25 8.47
  Q 1189.88 8.39 1200.50 8.64
  Q 1201.29 8.66 1201.38 8.71
  A 1.48 1.47 25.8 0 1 1202.03 10.57
  Q 1194.90 27.68 1187.60 44.76
  Q 1186.95 46.28 1186.77 47.41
  A 1.18 1.18 0.0 0 0 1187.93 48.78
  L 1233.31 48.79
  A 1.27 1.26 -90.0 0 1 1234.57 50.06
  L 1234.59 185.72
  Q 1234.59 187.36 1236.22 187.36
  Z"
/>
<path fill="#000000" d="
  M 1098.90 100.81
  A 1.99 1.99 0.0 0 1 1096.91 102.80
  L 993.41 102.80
  A 1.99 1.99 0.0 0 1 991.42 100.81
  L 991.42 53.35
  A 1.99 1.99 0.0 0 1 993.41 51.36
  L 1096.91 51.36
  A 1.99 1.99 0.0 0 1 1098.90 53.35
  L 1098.90 100.81
  Z
  M 1075.42 73.04
  A 1.55 1.55 0.0 0 0 1073.87 71.49
  L 1017.15 71.49
  A 1.55 1.55 0.0 0 0 1015.60 73.04
  L 1015.60 80.72
  A 1.55 1.55 0.0 0 0 1017.15 82.27
  L 1073.87 82.27
  A 1.55 1.55 0.0 0 0 1075.42 80.72
  L 1075.42 73.04
  Z"
/>
<path fill="#000000" d="
  M 313.64 143.23
  A 1.51 1.51 0.0 0 1 312.13 144.74
  L 154.67 144.74
  A 1.51 1.51 0.0 0 1 153.16 143.23
  L 153.16 70.89
  A 1.51 1.51 0.0 0 1 154.67 69.38
  L 312.13 69.38
  A 1.51 1.51 0.0 0 1 313.64 70.89
  L 313.64 143.23
  Z
  M 288.47 94.33
  A 1.11 1.11 0.0 0 0 287.36 93.22
  L 179.76 93.22
  A 1.11 1.11 0.0 0 0 178.65 94.33
  L 178.65 120.21
  A 1.11 1.11 0.0 0 0 179.76 121.32
  L 287.36 121.32
  A 1.11 1.11 0.0 0 0 288.47 120.21
  L 288.47 94.33
  Z"
/>
<rect fill="#ffffff" x="1015.60" y="71.49" width="59.82" height="10.78" rx="1.55"/>
<rect fill="#ffffff" x="178.65" y="93.22" width="109.82" height="28.10" rx="1.11"/>
<path fill="#000000" d="
  M 1069.62 152.36
  Q 1067.89 154.35 1070.50 153.97
  L 1097.93 150.07
  Q 1099.51 149.85 1099.51 151.45
  L 1099.50 171.29
  A 1.78 1.77 86.3 0 1 1097.97 173.04
  L 1063.20 177.86
  A 0.85 0.85 0.0 0 0 1062.46 178.70
  L 1062.42 213.54
  A 1.72 1.71 -89.8 0 1 1060.71 215.25
  L 1013.75 215.26
  Q 1012.73 215.26 1012.73 214.25
  L 1012.72 194.49
  A 0.79 0.79 0.0 0 1 1013.51 193.69
  L 1035.54 193.67
  A 0.96 0.95 90.0 0 0 1036.49 192.71
  L 1036.49 183.54
  A 1.51 1.51 0.0 0 0 1034.76 182.05
  L 974.02 190.82
  A 1.07 1.07 0.0 0 1 972.80 189.76
  L 972.79 168.98
  A 1.43 1.43 0.0 0 1 974.02 167.56
  L 1035.45 158.94
  A 1.18 1.18 0.0 0 0 1036.46 157.77
  L 1036.50 140.72
  A 1.04 1.04 0.0 0 1 1037.53 139.68
  L 1048.73 139.64
  Q 1050.80 139.63 1052.15 138.07
  L 1057.22 132.22
  Q 1058.59 130.64 1056.49 130.64
  L 988.18 130.62
  A 1.69 1.69 0.0 0 1 986.49 128.93
  L 986.49 112.05
  A 1.56 1.56 0.0 0 1 988.05 110.49
  Q 1045.21 110.49 1102.00 110.44
  Q 1103.37 110.44 1103.76 110.57
  Q 1105.43 111.14 1104.24 112.50
  L 1069.62 152.36
  Z"
/>
<path fill="#000000" d="
  M 129.44 184.99
  L 129.43 299.95
  A 1.63 1.63 0.0 0 1 127.80 301.58
  L 104.56 301.62
  A 1.63 1.63 0.0 0 1 102.93 299.99
  L 102.93 160.53
  A 1.63 1.63 0.0 0 1 104.56 158.90
  L 362.28 158.89
  A 1.63 1.63 0.0 0 1 363.91 160.52
  L 363.91 299.94
  A 1.63 1.63 0.0 0 1 362.28 301.57
  L 339.06 301.61
  A 1.63 1.63 0.0 0 1 337.43 299.98
  L 337.41 184.98
  A 1.63 1.63 0.0 0 0 335.78 183.35
  L 131.07 183.36
  A 1.63 1.63 0.0 0 0 129.44 184.99
  Z"
/>
<path fill="#000000" d="
  M 1104.55 251.03
  A 1.27 1.27 0.0 0 0 1103.28 249.76
  L 1009.67 249.75
  Q 1008.08 249.75 1008.08 248.17
  L 1008.08 227.09
  Q 1008.08 225.26 1009.91 225.26
  L 1103.03 225.26
  A 1.54 1.53 -90.0 0 0 1104.56 223.72
  L 1104.53 194.46
  A 0.76 0.76 0.0 0 1 1105.29 193.70
  L 1129.23 193.68
  Q 1130.77 193.68 1130.77 195.23
  L 1130.78 223.27
  A 1.99 1.99 0.0 0 0 1132.77 225.26
  L 1225.52 225.26
  A 1.52 1.52 0.0 0 1 1227.04 226.77
  L 1227.09 248.52
  Q 1227.09 249.77 1225.85 249.77
  Q 1181.24 249.75 1136.75 249.71
  Q 1133.97 249.71 1131.44 250.04
  A 0.75 0.74 -3.5 0 0 1130.78 250.78
  L 1130.78 271.76
  A 1.49 1.48 90.0 0 0 1132.26 273.25
  L 1259.72 273.25
  Q 1261.26 273.25 1261.27 274.79
  L 1261.31 297.26
  A 0.82 0.82 0.0 0 1 1260.49 298.08
  L 975.26 298.08
  A 0.64 0.64 0.0 0 1 974.62 297.44
  L 974.65 274.73
  A 1.49 1.48 0.0 0 1 976.14 273.25
  L 1103.89 273.25
  Q 1104.54 273.25 1104.54 272.60
  L 1104.55 251.03
  Z"
/>
<path fill="#000000" d="
  M 301.20 273.94
  A 1.62 1.62 0.0 0 1 299.58 275.56
  L 167.24 275.56
  A 1.62 1.62 0.0 0 1 165.62 273.94
  L 165.62 201.72
  A 1.62 1.62 0.0 0 1 167.24 200.10
  L 299.58 200.10
  A 1.62 1.62 0.0 0 1 301.20 201.72
  L 301.20 273.94
  Z
  M 276.10 225.24
  A 1.46 1.46 0.0 0 0 274.64 223.78
  L 192.18 223.78
  A 1.46 1.46 0.0 0 0 190.72 225.24
  L 190.72 249.78
  A 1.46 1.46 0.0 0 0 192.18 251.24
  L 274.64 251.24
  A 1.46 1.46 0.0 0 0 276.10 249.78
  L 276.10 225.24
  Z"
/>
<rect fill="#ffffff" x="190.72" y="223.78" width="85.38" height="27.46" rx="1.46"/>
<path fill="#000000" d="
  M 555.37 332.42
  L 558.78 336.97
  A 0.50 0.50 0.0 0 1 558.38 337.77
  L 551.39 337.74
  A 0.50 0.50 0.0 0 1 551.00 337.55
  L 547.41 333.04
  A 0.50 0.50 0.0 0 1 547.80 332.23
  L 554.97 332.22
  A 0.50 0.50 0.0 0 1 555.37 332.42
  Z"
/>
<path fill="#000000" d="
  M 575.36 338.44
  L 590.05 338.34
  A 0.39 0.39 0.0 0 1 590.44 338.73
  L 590.42 344.33
  A 0.39 0.39 0.0 0 1 590.03 344.72
  L 564.87 344.68
  A 0.39 0.39 0.0 0 0 564.55 344.85
  L 562.18 348.21
  A 0.39 0.39 0.0 0 0 562.50 348.82
  L 583.87 348.84
  A 0.39 0.39 0.0 0 1 584.26 349.23
  L 584.26 378.11
  A 0.39 0.39 0.0 0 1 583.87 378.50
  L 542.88 378.51
  A 0.39 0.39 0.0 0 1 542.49 378.12
  L 542.49 349.18
  A 0.39 0.39 0.0 0 1 542.88 348.79
  L 553.83 348.85
  A 0.39 0.39 0.0 0 0 554.16 348.67
  L 556.35 345.32
  A 0.39 0.39 0.0 0 0 556.03 344.72
  L 536.14 344.69
  A 0.39 0.39 0.0 0 1 535.75 344.30
  L 535.74 338.77
  A 0.39 0.39 0.0 0 1 536.13 338.38
  L 565.93 338.48
  A 0.39 0.39 0.0 0 0 566.25 338.32
  L 570.61 332.39
  A 0.39 0.39 0.0 0 1 570.93 332.23
  L 578.51 332.24
  A 0.39 0.39 0.0 0 1 578.82 332.87
  L 575.04 337.82
  A 0.39 0.39 0.0 0 0 575.36 338.44
  Z
  M 577.47 355.89
  A 1.14 1.14 0.0 0 0 576.33 354.75
  L 550.39 354.75
  A 1.14 1.14 0.0 0 0 549.25 355.89
  L 549.25 356.13
  A 1.14 1.14 0.0 0 0 550.39 357.27
  L 576.33 357.27
  A 1.14 1.14 0.0 0 0 577.47 356.13
  L 577.47 355.89
  Z
  M 577.4194 363.0555
  A 0.95 0.95 0.0 0 0 576.4678 362.1071
  L 550.2678 362.1529
  A 0.95 0.95 0.0 0 0 549.3195 363.1045
  L 549.3206 363.7245
  A 0.95 0.95 0.0 0 0 550.2722 364.6729
  L 576.4722 364.6271
  A 0.95 0.95 0.0 0 0 577.4205 363.6755
  L 577.4194 363.0555
  Z
  M 577.39 370.44
  A 0.96 0.96 0.0 0 0 576.43 369.48
  L 550.27 369.48
  A 0.96 0.96 0.0 0 0 549.31 370.44
  L 549.31 371.60
  A 0.96 0.96 0.0 0 0 550.27 372.56
  L 576.43 372.56
  A 0.96 0.96 0.0 0 0 577.39 371.60
  L 577.39 370.44
  Z"
/>
<path fill="#000000" d="
  M 795.19 341.50
  L 827.80 341.50
  A 0.33 0.33 0.0 0 1 828.13 341.83
  L 828.13 412.43
  A 0.33 0.33 0.0 0 1 827.80 412.76
  L 769.47 412.76
  A 0.33 0.33 0.0 0 1 769.14 412.43
  L 769.11 341.84
  A 0.33 0.33 0.0 0 1 769.44 341.51
  L 785.02 341.50
  A 0.33 0.33 0.0 0 0 785.29 341.36
  L 791.40 332.37
  A 0.33 0.33 0.0 0 1 791.67 332.23
  L 800.50 332.20
  A 0.33 0.33 0.0 0 1 800.77 332.72
  L 794.92 340.98
  A 0.33 0.33 0.0 0 0 795.19 341.50
  Z
  M 820.51 349.42
  A 0.49 0.49 0.0 0 0 820.02 348.93
  L 777.06 348.93
  A 0.49 0.49 0.0 0 0 776.57 349.42
  L 776.57 361.26
  A 0.49 0.49 0.0 0 0 777.06 361.75
  L 820.02 361.75
  A 0.49 0.49 0.0 0 0 820.51 361.26
  L 820.51 349.42
  Z
  M 820.50 369.48
  A 0.41 0.41 0.0 0 0 820.09 369.07
  L 776.97 369.07
  A 0.41 0.41 0.0 0 0 776.56 369.48
  L 776.56 381.50
  A 0.41 0.41 0.0 0 0 776.97 381.91
  L 820.09 381.91
  A 0.41 0.41 0.0 0 0 820.50 381.50
  L 820.50 369.48
  Z
  M 820.50 389.64
  A 0.40 0.40 0.0 0 0 820.10 389.24
  L 776.98 389.24
  A 0.40 0.40 0.0 0 0 776.58 389.64
  L 776.58 405.00
  A 0.40 0.40 0.0 0 0 776.98 405.40
  L 820.10 405.40
  A 0.40 0.40 0.0 0 0 820.50 405.00
  L 820.50 389.64
  Z"
/>
<path fill="#000000" d="
  M 917.53 346.41
  L 917.53 332.89
  A 0.61 0.61 0.0 0 1 918.14 332.28
  L 924.39 332.30
  A 0.61 0.61 0.0 0 1 925.00 332.91
  L 924.90 346.42
  A 0.61 0.61 0.0 0 0 925.51 347.03
  L 955.84 347.02
  A 0.61 0.61 0.0 0 1 956.45 347.63
  L 956.47 353.55
  A 0.61 0.61 0.0 0 1 955.86 354.16
  L 887.17 354.19
  A 0.61 0.61 0.0 0 1 886.56 353.58
  L 886.54 347.63
  A 0.61 0.61 0.0 0 1 887.15 347.02
  L 916.92 347.02
  A 0.61 0.61 0.0 0 0 917.53 346.41
  Z"
/>
<path fill="#000000" d="
  M 1064.62 343.76
  L 1082.13 343.79
  A 0.37 0.37 0.0 0 1 1082.50 344.16
  L 1082.50 364.11
  A 0.37 0.37 0.0 0 1 1082.12 364.48
  L 1075.59 364.40
  A 0.37 0.37 0.0 0 1 1075.22 364.02
  L 1075.28 351.19
  A 0.37 0.37 0.0 0 0 1074.91 350.82
  L 1015.13 350.80
  A 0.37 0.37 0.0 0 0 1014.76 351.17
  L 1014.79 364.04
  A 0.37 0.37 0.0 0 1 1014.42 364.41
  L 1007.97 364.42
  A 0.37 0.37 0.0 0 1 1007.60 364.05
  L 1007.53 344.14
  A 0.37 0.37 0.0 0 1 1007.90 343.77
  L 1054.89 343.78
  A 0.37 0.37 0.0 0 0 1055.19 343.62
  L 1063.07 332.43
  A 0.37 0.37 0.0 0 1 1063.37 332.27
  L 1071.34 332.23
  A 0.37 0.37 0.0 0 1 1071.65 332.82
  L 1064.32 343.18
  A 0.37 0.37 0.0 0 0 1064.62 343.76
  Z"
/>
<path fill="#000000" d="
  M 151.46 373.30
  L 150.07 376.94
  Q 149.63 378.10 148.39 378.09
  L 143.23 378.07
  Q 142.08 378.07 142.46 376.98
  L 157.85 333.04
  Q 157.96 332.73 158.29 332.73
  L 165.13 332.77
  A 0.30 0.30 0.0 0 1 165.41 333.17
  L 159.26 350.68
  A 8.51 8.37 55.2 0 0 158.78 353.49
  L 158.84 413.48
  Q 158.84 413.86 158.46 413.87
  L 152.23 413.90
  Q 151.80 413.90 151.80 413.48
  L 151.79 373.36
  A 0.17 0.17 0.0 0 0 151.46 373.30
  Z"
/>
<rect fill="#000000" x="335.21" y="332.73" width="7.54" height="81.18" rx="0.58"/>
<path fill="#000000" d="
  M 398.25 387.11
  L 389.29 391.42
  A 0.53 0.53 0.0 0 1 388.53 390.94
  L 388.53 384.24
  A 0.53 0.53 0.0 0 1 388.83 383.76
  L 398.70 378.91
  A 0.53 0.53 0.0 0 0 399.00 378.43
  L 399.00 355.76
  A 0.53 0.53 0.0 0 0 398.47 355.23
  L 389.07 355.22
  A 0.53 0.53 0.0 0 1 388.54 354.69
  L 388.55 348.77
  A 0.53 0.53 0.0 0 1 389.07 348.25
  L 398.51 348.16
  A 0.53 0.53 0.0 0 0 399.04 347.62
  L 398.95 333.28
  A 0.53 0.53 0.0 0 1 399.48 332.75
  L 405.59 332.74
  A 0.53 0.53 0.0 0 1 406.12 333.27
  L 406.06 347.68
  A 0.53 0.53 0.0 0 0 406.59 348.21
  L 416.37 348.19
  A 0.53 0.53 0.0 0 1 416.90 348.72
  L 416.89 354.70
  A 0.53 0.53 0.0 0 1 416.36 355.23
  L 406.62 355.23
  A 0.53 0.53 0.0 0 0 406.09 355.76
  L 406.09 374.46
  A 0.53 0.53 0.0 0 0 406.85 374.94
  L 415.10 371.02
  A 0.53 0.53 0.0 0 1 415.86 371.51
  L 415.76 378.20
  A 0.53 0.53 0.0 0 1 415.46 378.67
  L 406.37 383.05
  A 0.53 0.53 0.0 0 0 406.07 383.52
  L 406.08 413.36
  A 0.53 0.53 0.0 0 1 405.55 413.89
  L 399.52 413.89
  A 0.53 0.53 0.0 0 1 398.99 413.36
  L 399.01 387.59
  A 0.53 0.53 0.0 0 0 398.25 387.11
  Z"
/>
<path fill="#000000" d="
  M 429.11 361.48
  L 467.93 361.48
  A 0.49 0.49 0.0 0 1 468.42 361.97
  L 468.37 367.96
  A 0.49 0.49 0.0 0 1 467.88 368.45
  L 421.99 368.45
  A 0.49 0.49 0.0 0 1 421.50 367.96
  L 421.50 333.23
  A 0.49 0.49 0.0 0 1 421.99 332.74
  L 428.15 332.73
  A 0.49 0.49 0.0 0 1 428.64 333.22
  L 428.58 347.05
  A 0.49 0.49 0.0 0 0 429.21 347.52
  L 465.00 336.89
  A 0.49 0.49 0.0 0 1 465.63 337.36
  L 465.61 343.64
  A 0.49 0.49 0.0 0 1 465.26 344.10
  L 428.96 354.91
  A 0.49 0.49 0.0 0 0 428.61 355.38
  L 428.62 360.99
  A 0.49 0.49 0.0 0 0 429.11 361.48
  Z"
/>
<path fill="#000000" d="
  M 1023.68 342.03
  L 1017.79 333.42
  A 0.37 0.37 0.0 0 1 1018.09 332.84
  L 1025.87 332.87
  A 0.37 0.37 0.0 0 1 1026.17 333.03
  L 1032.20 341.67
  A 0.37 0.37 0.0 0 1 1031.89 342.25
  L 1023.98 342.19
  A 0.37 0.37 0.0 0 1 1023.68 342.03
  Z"
/>
<path fill="#000000" d="
  M 1040.75 342.04
  L 1034.84 333.48
  A 0.40 0.40 0.0 0 1 1035.17 332.85
  L 1042.80 332.88
  A 0.40 0.40 0.0 0 1 1043.13 333.05
  L 1049.10 341.65
  A 0.40 0.40 0.0 0 1 1048.77 342.28
  L 1041.08 342.21
  A 0.40 0.40 0.0 0 1 1040.75 342.04
  Z"
/>
<path fill="#000000" d="
  M 1130.69 339.52
  L 1130.68 333.84
  A 0.63 0.63 0.0 0 1 1131.31 333.21
  L 1164.08 333.21
  A 0.63 0.63 0.0 0 1 1164.71 333.84
  L 1164.69 370.34
  A 0.63 0.63 0.0 0 1 1164.06 370.97
  L 1158.10 370.99
  A 0.63 0.63 0.0 0 1 1157.47 370.36
  L 1157.49 340.72
  A 0.63 0.63 0.0 0 0 1156.86 340.09
  L 1131.32 340.15
  A 0.63 0.63 0.0 0 1 1130.69 339.52
  Z"
/>
<path fill="#000000" d="
  M 1198.24 340.08
  L 1171.42 340.10
  A 0.53 0.53 0.0 0 1 1170.89 339.57
  L 1170.89 333.73
  A 0.53 0.53 0.0 0 1 1171.42 333.20
  L 1205.36 333.21
  A 0.53 0.53 0.0 0 1 1205.89 333.74
  L 1205.85 370.43
  A 0.53 0.53 0.0 0 1 1205.32 370.96
  L 1199.28 370.98
  A 0.53 0.53 0.0 0 1 1198.75 370.45
  L 1198.77 340.61
  A 0.53 0.53 0.0 0 0 1198.24 340.08
  Z"
/>
<path fill="#000000" d="
  M 219.73 411.98
  A 0.60 0.60 0.0 0 1 219.13 412.58
  L 167.09 412.58
  A 0.60 0.60 0.0 0 1 166.49 411.98
  L 166.49 334.84
  A 0.60 0.60 0.0 0 1 167.09 334.24
  L 219.13 334.24
  A 0.60 0.60 0.0 0 1 219.73 334.84
  L 219.73 411.98
  Z
  M 212.59 341.52
  A 0.48 0.48 0.0 0 0 212.11 341.04
  L 173.97 341.04
  A 0.48 0.48 0.0 0 0 173.49 341.52
  L 173.49 405.16
  A 0.48 0.48 0.0 0 0 173.97 405.64
  L 212.11 405.64
  A 0.48 0.48 0.0 0 0 212.59 405.16
  L 212.59 341.52
  Z"
/>
<path fill="#000000" d="
  M 283.24 366.23
  L 269.91 366.24
  A 0.50 0.50 0.0 0 1 269.41 365.74
  L 269.41 335.22
  A 0.50 0.50 0.0 0 1 269.91 334.72
  L 304.57 334.71
  A 0.50 0.50 0.0 0 1 305.07 335.21
  L 305.07 365.74
  A 0.50 0.50 0.0 0 1 304.57 366.24
  L 291.82 366.22
  A 0.50 0.50 0.0 0 0 291.35 366.54
  L 289.27 371.78
  A 0.50 0.50 0.0 0 0 289.73 372.46
  L 303.75 372.35
  A 0.50 0.50 0.0 0 1 304.25 372.85
  L 304.19 412.45
  A 0.50 0.50 0.0 0 1 303.69 412.95
  L 288.76 412.97
  A 0.50 0.50 0.0 0 1 288.26 412.47
  L 288.24 406.82
  A 0.50 0.50 0.0 0 1 288.74 406.32
  L 296.48 406.26
  A 0.50 0.50 0.0 0 0 296.98 405.76
  L 296.97 379.67
  A 0.50 0.50 0.0 0 0 296.47 379.17
  L 286.66 379.13
  A 0.50 0.50 0.0 0 0 286.19 379.44
  L 272.45 413.66
  A 0.50 0.50 0.0 0 1 271.98 413.98
  L 265.49 413.88
  A 0.50 0.50 0.0 0 1 265.03 413.19
  L 283.70 366.92
  A 0.50 0.50 0.0 0 0 283.24 366.23
  Z
  M 297.7155 342.1515
  A 0.45 0.45 0.0 0 0 297.2647 341.7023
  L 276.9847 341.7377
  A 0.45 0.45 0.0 0 0 276.5355 342.1885
  L 276.5645 358.7885
  A 0.45 0.45 0.0 0 0 277.0153 359.2377
  L 297.2953 359.2023
  A 0.45 0.45 0.0 0 0 297.7445 358.7515
  L 297.7155 342.1515
  Z"
/>
<path fill="#000000" d="
  M 530.52 346.26
  L 514.85 342.29
  A 0.48 0.48 0.0 0 1 514.49 341.83
  L 514.50 335.89
  A 0.48 0.48 0.0 0 1 515.10 335.42
  L 530.62 339.35
  A 0.48 0.48 0.0 0 1 530.98 339.80
  L 531.12 345.78
  A 0.48 0.48 0.0 0 1 530.52 346.26
  Z"
/>
<rect fill="#000000" x="313.29" y="340.00" width="7.44" height="55.54" rx="0.54"/>
<path fill="#ffffff" d="
  M 212.59 405.16
  A 0.48 0.48 0.0 0 1 212.11 405.64
  L 173.97 405.64
  A 0.48 0.48 0.0 0 1 173.49 405.16
  L 173.49 341.52
  A 0.48 0.48 0.0 0 1 173.97 341.04
  L 212.11 341.04
  A 0.48 0.48 0.0 0 1 212.59 341.52
  L 212.59 405.16
  Z
  M 197.08 376.98
  A 0.58 0.58 0.0 0 1 196.50 376.40
  L 196.50 364.07
  A 0.58 0.58 0.0 0 1 197.08 363.49
  L 210.24 363.50
  A 0.58 0.58 0.0 0 0 210.82 362.93
  L 210.89 357.39
  A 0.58 0.58 0.0 0 0 210.31 356.80
  L 197.08 356.80
  A 0.58 0.58 0.0 0 1 196.50 356.22
  L 196.49 344.55
  A 0.58 0.58 0.0 0 0 195.89 343.98
  L 190.23 344.22
  A 0.58 0.58 0.0 0 0 189.67 344.80
  L 189.69 356.23
  A 0.58 0.58 0.0 0 1 189.11 356.81
  L 175.81 356.78
  A 0.58 0.58 0.0 0 0 175.23 357.36
  L 175.20 362.92
  A 0.58 0.58 0.0 0 0 175.78 363.50
  L 189.14 363.48
  A 0.58 0.58 0.0 0 1 189.72 364.06
  L 189.70 376.40
  A 0.58 0.58 0.0 0 1 189.12 376.98
  L 178.72 376.99
  A 0.58 0.58 0.0 0 0 178.14 377.57
  L 178.14 400.69
  A 0.58 0.58 0.0 0 0 178.72 401.27
  L 207.42 401.26
  A 0.58 0.58 0.0 0 0 208.00 400.68
  L 208.00 377.59
  A 0.58 0.58 0.0 0 0 207.42 377.01
  L 197.08 376.98
  Z"
/>
<rect fill="#ffffff" x="-10.59" y="-8.75" transform="translate(287.14,350.47) rotate(-0.1)" width="21.18" height="17.50" rx="0.45"/>
<path fill="#000000" d="
  M 1185.88 352.27
  L 1168.61 348.57
  A 0.76 0.76 0.0 0 1 1168.01 347.82
  L 1168.04 342.82
  A 0.76 0.76 0.0 0 1 1168.95 342.08
  L 1186.25 345.69
  A 0.76 0.76 0.0 0 1 1186.85 346.44
  L 1186.80 351.53
  A 0.76 0.76 0.0 0 1 1185.88 352.27
  Z"
/>
<path fill="#000000" d="
  M 1148.63 353.22
  L 1130.63 349.49
  A 0.46 0.46 0.0 0 1 1130.26 349.03
  L 1130.33 343.44
  A 0.46 0.46 0.0 0 1 1130.89 342.99
  L 1148.84 346.66
  A 0.46 0.46 0.0 0 1 1149.21 347.12
  L 1149.18 352.77
  A 0.46 0.46 0.0 0 1 1148.63 353.22
  Z"
/>
<path fill="#000000" d="
  M 197.08 376.98
  L 207.42 377.01
  A 0.58 0.58 0.0 0 1 208.00 377.59
  L 208.00 400.68
  A 0.58 0.58 0.0 0 1 207.42 401.26
  L 178.72 401.27
  A 0.58 0.58 0.0 0 1 178.14 400.69
  L 178.14 377.57
  A 0.58 0.58 0.0 0 1 178.72 376.99
  L 189.12 376.98
  A 0.58 0.58 0.0 0 0 189.70 376.40
  L 189.72 364.06
  A 0.58 0.58 0.0 0 0 189.14 363.48
  L 175.78 363.50
  A 0.58 0.58 0.0 0 1 175.20 362.92
  L 175.23 357.36
  A 0.58 0.58 0.0 0 1 175.81 356.78
  L 189.11 356.81
  A 0.58 0.58 0.0 0 0 189.69 356.23
  L 189.67 344.80
  A 0.58 0.58 0.0 0 1 190.23 344.22
  L 195.89 343.98
  A 0.58 0.58 0.0 0 1 196.49 344.55
  L 196.50 356.22
  A 0.58 0.58 0.0 0 0 197.08 356.80
  L 210.31 356.80
  A 0.58 0.58 0.0 0 1 210.89 357.39
  L 210.82 362.93
  A 0.58 0.58 0.0 0 1 210.24 363.50
  L 197.08 363.49
  A 0.58 0.58 0.0 0 0 196.50 364.07
  L 196.50 376.40
  A 0.58 0.58 0.0 0 0 197.08 376.98
  Z
  M 201.1894 383.7343
  A 0.48 0.48 0.0 0 0 200.7102 383.2534
  L 185.3302 383.2266
  A 0.48 0.48 0.0 0 0 184.8494 383.7057
  L 184.8306 394.4457
  A 0.48 0.48 0.0 0 0 185.3098 394.9266
  L 200.6898 394.9534
  A 0.48 0.48 0.0 0 0 201.1706 394.4743
  L 201.1894 383.7343
  Z"
/>
<rect fill="#ffffff" x="776.57" y="348.93" width="43.94" height="12.82" rx="0.49"/>
<path fill="#000000" d="
  M 1197.20 356.58
  L 1169.19 369.20
  A 0.69 0.69 0.0 0 1 1168.21 368.58
  L 1168.18 362.58
  A 0.69 0.69 0.0 0 1 1168.59 361.95
  L 1196.62 349.36
  A 0.69 0.69 0.0 0 1 1197.59 349.98
  L 1197.61 355.95
  A 0.69 0.69 0.0 0 1 1197.20 356.58
  Z"
/>
<path fill="#000000" d="
  M 670.30 372.45
  L 652.55 354.68
  A 0.60 0.60 0.0 0 1 652.55 353.84
  L 656.08 350.29
  A 0.60 0.60 0.0 0 1 656.94 350.29
  L 674.56 368.15
  A 0.60 0.60 0.0 0 0 675.41 368.15
  L 693.16 350.34
  A 0.60 0.60 0.0 0 1 694.01 350.34
  L 697.49 353.84
  A 0.60 0.60 0.0 0 1 697.49 354.68
  L 679.76 372.45
  A 0.60 0.60 0.0 0 0 679.76 373.29
  L 697.51 391.07
  A 0.60 0.60 0.0 0 1 697.51 391.92
  L 693.99 395.41
  A 0.60 0.60 0.0 0 1 693.14 395.41
  L 675.40 377.60
  A 0.60 0.60 0.0 0 0 674.54 377.60
  L 656.94 395.44
  A 0.60 0.60 0.0 0 1 656.09 395.45
  L 652.54 391.94
  A 0.60 0.60 0.0 0 1 652.54 391.09
  L 670.30 373.29
  A 0.60 0.60 0.0 0 0 670.30 372.45
  Z"
/>
<path fill="#000000" d="
  M 523.43 359.98
  L 513.73 359.96
  A 0.48 0.48 0.0 0 1 513.25 359.48
  L 513.24 353.97
  Q 513.24 353.42 513.79 353.42
  L 530.67 353.42
  Q 531.17 353.42 531.17 353.92
  L 531.14 373.96
  Q 531.14 374.39 531.50 374.64
  C 535.24 377.21 539.85 380.50 544.53 380.49
  Q 568.05 380.45 591.47 380.40
  A 0.32 0.32 0.0 0 1 591.79 380.72
  L 591.79 386.75
  A 0.26 0.26 0.0 0 1 591.53 387.00
  Q 566.86 387.02 542.04 387.02
  C 537.87 387.02 532.79 383.28 529.37 381.10
  A 1.58 1.57 -42.2 0 0 527.78 381.03
  L 512.12 389.43
  A 0.25 0.25 0.0 0 1 511.76 389.21
  L 511.78 382.06
  A 0.54 0.54 0.0 0 1 512.07 381.58
  L 523.42 375.45
  A 1.34 1.33 -14.2 0 0 524.13 374.27
  L 524.13 360.68
  Q 524.13 359.98 523.43 359.98
  Z"
/>
<path fill="#000000" d="
  M 1155.23 361.72
  L 1130.57 372.88
  A 0.59 0.59 0.0 0 1 1129.74 372.35
  L 1129.72 366.15
  A 0.59 0.59 0.0 0 1 1130.07 365.61
  L 1154.71 354.46
  A 0.59 0.59 0.0 0 1 1155.54 355.00
  L 1155.58 361.18
  A 0.59 0.59 0.0 0 1 1155.23 361.72
  Z"
/>
<rect fill="#ffffff" x="549.25" y="354.75" width="28.22" height="2.52" rx="1.14"/>
<path fill="#000000" d="
  M 932.28 405.20
  L 960.57 405.23
  A 0.54 0.54 0.0 0 1 961.11 405.77
  L 961.12 411.74
  A 0.54 0.54 0.0 0 1 960.58 412.28
  L 882.55 412.28
  A 0.54 0.54 0.0 0 1 882.01 411.74
  L 882.02 405.76
  A 0.54 0.54 0.0 0 1 882.56 405.22
  L 923.39 405.21
  A 0.54 0.54 0.0 0 0 923.91 404.83
  L 938.83 356.48
  A 0.54 0.54 0.0 0 1 939.35 356.10
  L 945.99 356.06
  A 0.54 0.54 0.0 0 1 946.51 356.76
  L 931.77 404.50
  A 0.54 0.54 0.0 0 0 932.28 405.20
  Z"
/>
<path fill="#000000" d="
  M 1084.56 379.50
  L 1084.57 385.88
  A 0.33 0.33 0.0 0 1 1084.24 386.21
  L 1048.84 386.18
  A 0.33 0.33 0.0 0 0 1048.51 386.51
  L 1048.50 413.19
  A 0.33 0.33 0.0 0 1 1048.17 413.52
  L 1027.57 413.50
  A 0.33 0.33 0.0 0 1 1027.24 413.17
  L 1027.26 407.12
  A 0.33 0.33 0.0 0 1 1027.59 406.79
  L 1040.85 406.76
  A 0.33 0.33 0.0 0 0 1041.18 406.43
  L 1041.18 386.54
  A 0.33 0.33 0.0 0 0 1040.85 386.21
  L 1005.84 386.19
  A 0.33 0.33 0.0 0 1 1005.51 385.86
  L 1005.54 379.52
  A 0.33 0.33 0.0 0 1 1005.87 379.19
  L 1040.96 379.17
  A 0.33 0.33 0.0 0 0 1041.29 378.82
  L 1041.03 373.35
  A 0.33 0.33 0.0 0 1 1041.35 373.01
  L 1045.44 372.99
  A 0.33 0.33 0.0 0 0 1045.67 372.90
  L 1055.04 363.65
  A 0.33 0.33 0.0 0 0 1054.80 363.08
  L 1018.39 363.14
  A 0.33 0.33 0.0 0 1 1018.06 362.80
  L 1018.17 356.34
  A 0.33 0.33 0.0 0 1 1018.50 356.02
  L 1072.45 356.03
  A 0.33 0.33 0.0 0 1 1072.68 356.60
  L 1050.26 378.63
  A 0.33 0.33 0.0 0 0 1050.49 379.20
  L 1084.23 379.17
  A 0.33 0.33 0.0 0 1 1084.56 379.50
  Z"
/>
<path fill="#000000" d="
  M 904.01 358.46
  L 915.37 400.62
  A 0.62 0.62 0.0 0 1 914.77 401.40
  L 908.39 401.40
  A 0.62 0.62 0.0 0 1 907.79 400.94
  L 896.52 358.78
  A 0.62 0.62 0.0 0 1 897.12 358.00
  L 903.41 358.00
  A 0.62 0.62 0.0 0 1 904.01 358.46
  Z"
/>
<rect fill="#ffffff" x="-14.05" y="-1.26" transform="translate(563.37,363.39) rotate(-0.1)" width="28.10" height="2.52" rx="0.95"/>
<path fill="#000000" d="
  M 53.48 375.26
  Q 36.20 367.48 21.08 378.66
  A 0.22 0.22 0.0 0 1 20.73 378.48
  L 20.68 369.99
  Q 20.68 369.73 20.89 369.60
  Q 32.26 362.67 44.66 364.46
  C 51.50 365.44 59.90 369.66 67.02 372.60
  C 78.33 377.26 86.79 374.50 96.56 368.30
  A 0.25 0.25 0.0 0 1 96.94 368.51
  L 96.94 376.47
  A 0.47 0.46 -17.8 0 1 96.74 376.85
  Q 82.00 386.85 66.01 380.74
  Q 63.43 379.75 53.48 375.26
  Z"
/>
<path fill="#000000" d="
  M 1287.99 375.99
  Q 1269.67 366.99 1253.85 378.66
  A 0.22 0.22 0.0 0 1 1253.50 378.48
  L 1253.48 369.94
  Q 1253.48 369.67 1253.71 369.53
  Q 1265.38 362.54 1277.89 364.54
  C 1286.74 365.95 1295.19 372.03 1304.38 374.11
  Q 1317.51 377.10 1328.66 368.49
  A 0.63 0.63 0.0 0 1 1329.67 368.99
  L 1329.70 376.09
  Q 1329.70 376.68 1329.21 377.02
  C 1315.30 386.55 1302.91 383.32 1287.99 375.99
  Z"
/>
<rect fill="#ffffff" x="776.56" y="369.07" width="43.94" height="12.84" rx="0.41"/>
<rect fill="#ffffff" x="549.31" y="369.48" width="28.08" height="3.08" rx="0.96"/>
<path fill="#000000" d="
  M 1163.11 375.67
  L 1165.64 370.71
  A 0.51 0.51 0.0 0 1 1166.09 370.43
  L 1173.30 370.41
  A 0.51 0.51 0.0 0 1 1173.75 371.17
  L 1171.48 375.16
  A 0.51 0.51 0.0 0 0 1171.93 375.92
  L 1196.65 375.94
  A 0.51 0.51 0.0 0 1 1197.16 376.45
  L 1197.18 412.44
  A 0.51 0.51 0.0 0 1 1196.67 412.95
  L 1140.03 412.98
  A 0.51 0.51 0.0 0 1 1139.52 412.47
  L 1139.53 376.43
  A 0.51 0.51 0.0 0 1 1140.04 375.92
  L 1162.66 375.95
  A 0.51 0.51 0.0 0 0 1163.11 375.67
  Z
  M 1189.84 383.35
  A 0.59 0.59 0.0 0 0 1189.25 382.76
  L 1147.45 382.76
  A 0.59 0.59 0.0 0 0 1146.86 383.35
  L 1146.86 389.13
  A 0.59 0.59 0.0 0 0 1147.45 389.72
  L 1189.25 389.72
  A 0.59 0.59 0.0 0 0 1189.84 389.13
  L 1189.84 383.35
  Z
  M 1189.82 397.26
  A 0.52 0.52 0.0 0 0 1189.30 396.74
  L 1147.38 396.74
  A 0.52 0.52 0.0 0 0 1146.86 397.26
  L 1146.86 405.60
  A 0.52 0.52 0.0 0 0 1147.38 406.12
  L 1189.30 406.12
  A 0.52 0.52 0.0 0 0 1189.82 405.60
  L 1189.82 397.26
  Z"
/>
<path fill="#000000" d="
  M 465.19 412.29
  A 0.66 0.66 0.0 0 1 464.53 412.95
  L 424.53 412.95
  A 0.66 0.66 0.0 0 1 423.87 412.29
  L 423.87 372.93
  A 0.66 0.66 0.0 0 1 424.53 372.27
  L 464.53 372.27
  A 0.66 0.66 0.0 0 1 465.19 372.93
  L 465.19 412.29
  Z
  M 457.86 379.96
  A 0.64 0.64 0.0 0 0 457.22 379.32
  L 431.62 379.32
  A 0.64 0.64 0.0 0 0 430.98 379.96
  L 430.98 387.82
  A 0.64 0.64 0.0 0 0 431.62 388.46
  L 457.22 388.46
  A 0.64 0.64 0.0 0 0 457.86 387.82
  L 457.86 379.96
  Z
  M 457.86 395.73
  A 0.51 0.51 0.0 0 0 457.35 395.22
  L 431.49 395.22
  A 0.51 0.51 0.0 0 0 430.98 395.73
  L 430.98 405.49
  A 0.51 0.51 0.0 0 0 431.49 406.00
  L 457.35 406.00
  A 0.51 0.51 0.0 0 0 457.86 405.49
  L 457.86 395.73
  Z"
/>
<rect fill="#ffffff" x="430.98" y="379.32" width="26.88" height="9.14" rx="0.64"/>
<rect fill="#ffffff" x="1146.86" y="382.76" width="42.98" height="6.96" rx="0.59"/>
<rect fill="#ffffff" x="-8.17" y="-5.85" transform="translate(193.01,389.09) rotate(0.1)" width="16.34" height="11.70" rx="0.48"/>
<path fill="#000000" d="
  M 565.53 388.06
  L 571.77 388.16
  A 0.57 0.57 0.0 0 1 572.33 388.75
  L 572.26 390.50
  A 0.57 0.57 0.0 0 0 572.83 391.09
  L 591.17 391.16
  A 0.57 0.57 0.0 0 1 591.74 391.72
  L 591.86 397.25
  A 0.57 0.57 0.0 0 1 591.29 397.83
  L 572.81 397.86
  A 0.57 0.57 0.0 0 0 572.24 398.43
  L 572.26 413.30
  A 0.57 0.57 0.0 0 1 571.69 413.87
  L 565.57 413.87
  A 0.57 0.57 0.0 0 1 565.00 413.30
  L 565.05 398.42
  A 0.57 0.57 0.0 0 0 564.48 397.85
  L 512.29 397.83
  A 0.57 0.57 0.0 0 1 511.72 397.25
  L 511.78 391.69
  A 0.57 0.57 0.0 0 1 512.35 391.13
  L 564.46 391.17
  A 0.57 0.57 0.0 0 0 565.03 390.57
  L 564.95 388.66
  A 0.57 0.57 0.0 0 1 565.53 388.06
  Z"
/>
<rect fill="#ffffff" x="776.58" y="389.24" width="43.92" height="16.16" rx="0.40"/>
<rect fill="#ffffff" x="430.98" y="395.22" width="26.88" height="10.78" rx="0.51"/>
<rect fill="#ffffff" x="1146.86" y="396.74" width="42.96" height="9.38" rx="0.52"/>
<path fill="#000000" d="
  M 538.73 411.55
  L 529.71 401.35
  A 0.34 0.34 0.0 0 1 529.96 400.79
  L 538.33 400.77
  A 0.34 0.34 0.0 0 1 538.58 400.88
  L 547.68 411.10
  A 0.34 0.34 0.0 0 1 547.43 411.67
  L 538.98 411.66
  A 0.34 0.34 0.0 0 1 538.73 411.55
  Z"
/>
</svg>
