<svg width="25" height="31" viewBox="0 0 25 31" fill="none" xmlns="http://www.w3.org/2000/svg">
<g clip-path="url(#clip0_6_86)">
<path d="M24.5022 7.98953C24.3608 7.33002 24.0823 6.72811 23.6944 6.24404C23.3065 5.75997 22.8229 5.41072 22.2919 5.23123C20.3374 4.57953 12.5249 4.57953 12.5249 4.57953C12.5249 4.57953 4.7124 4.57953 2.75786 5.23123C2.22691 5.41072 1.7433 5.75997 1.35541 6.24404C0.967523 6.72811 0.688971 7.33002 0.54763 7.98953C0.0249024 10.4237 0.0249023 15.5 0.0249023 15.5C0.0249023 15.5 0.0249024 20.5762 0.54763 23.0104C0.688971 23.6699 0.967523 24.2718 1.35541 24.7559C1.7433 25.24 2.22691 25.5892 2.75786 25.7687C4.7124 26.4204 12.5249 26.4204 12.5249 26.4204C12.5249 26.4204 20.3374 26.4204 22.2919 25.7687C22.8229 25.5892 23.3065 25.24 23.6944 24.7559C24.0823 24.2718 24.3608 23.6699 24.5022 23.0104C25.0249 20.5762 25.0249 15.5 25.0249 15.5C25.0249 15.5 25.0249 10.4237 24.5022 7.98953Z" fill="#FF0302"/>
<path d="M9.96802 20.1095V10.8906L16.5021 15.5001L9.96802 20.1095Z" fill="#FEFEFE"/>
</g>
<defs>
<clipPath id="clip0_6_86">
<rect width="25" height="31" fill="white"/>
</clipPath>
</defs>
</svg>
